<?xml version="1.0" encoding="UTF-8" standalone="no"?>
<!-- Generator: Adobe Illustrator 18.0.0, SVG Export Plug-In . SVG Version: 6.00 Build 0)  -->

<svg
   xmlns:dc="http://purl.org/dc/elements/1.1/"
   xmlns:cc="http://creativecommons.org/ns#"
   xmlns:rdf="http://www.w3.org/1999/02/22-rdf-syntax-ns#"
   xmlns:svg="http://www.w3.org/2000/svg"
   xmlns="http://www.w3.org/2000/svg"
   xmlns:sodipodi="http://sodipodi.sourceforge.net/DTD/sodipodi-0.dtd"
   xmlns:inkscape="http://www.inkscape.org/namespaces/inkscape"
   version="1.1"
   id="Capa_1"
   x="0px"
   y="0px"
   viewBox="0 0 348.882 348.882"
   style="enable-background:new 0 0 348.882 348.882;"
   xml:space="preserve"
   sodipodi:docname="editIcon.svg"
   inkscape:export-filename="D:\workspace2018\ase-abschlussprojekte-ws1920-digitales-inventar\DigitalesInventar\app\src\main\res\drawable\editIcon.png"
   inkscape:export-xdpi="8.25"
   inkscape:export-ydpi="8.25"
   inkscape:version="0.92.3 (2405546, 2018-03-11)"><metadata
   id="metadata43"><rdf:RDF><cc:Work
       rdf:about=""><dc:format>image/svg+xml</dc:format><dc:type
         rdf:resource="http://purl.org/dc/dcmitype/StillImage" /></cc:Work></rdf:RDF></metadata><defs
   id="defs41" /><sodipodi:namedview
   pagecolor="#ffffff"
   bordercolor="#666666"
   borderopacity="1"
   objecttolerance="10"
   gridtolerance="10"
   guidetolerance="10"
   inkscape:pageopacity="0"
   inkscape:pageshadow="2"
   inkscape:window-width="955"
   inkscape:window-height="480"
   id="namedview39"
   showgrid="false"
   inkscape:zoom="0.6764465"
   inkscape:cx="174.44099"
   inkscape:cy="174.44099"
   inkscape:window-x="0"
   inkscape:window-y="0"
   inkscape:window-maximized="0"
   inkscape:current-layer="Capa_1" />
<g
   id="g6"
   style="fill:#ffffff;stroke:#000000;stroke-opacity:1;stroke-width:5.0000001;stroke-miterlimit:4;stroke-dasharray:none"
   inkscape:export-xdpi="8.1892395"
   inkscape:export-ydpi="8.1892395">
	<path
   d="M333.988,11.758l-0.42-0.383C325.538,4.04,315.129,0,304.258,0c-12.187,0-23.888,5.159-32.104,14.153L116.803,184.231   c-1.416,1.55-2.49,3.379-3.154,5.37l-18.267,54.762c-2.112,6.331-1.052,13.333,2.835,18.729c3.918,5.438,10.23,8.685,16.886,8.685   c0,0,0.001,0,0.001,0c2.879,0,5.693-0.592,8.362-1.76l52.89-23.138c1.923-0.841,3.648-2.076,5.063-3.626L336.771,73.176   C352.937,55.479,351.69,27.929,333.988,11.758z M130.381,234.247l10.719-32.134l0.904-0.99l20.316,18.556l-0.904,0.99   L130.381,234.247z M314.621,52.943L182.553,197.53l-20.316-18.556L294.305,34.386c2.583-2.828,6.118-4.386,9.954-4.386   c3.365,0,6.588,1.252,9.082,3.53l0.419,0.383C319.244,38.922,319.63,47.459,314.621,52.943z"
   id="path2"
   style="fill:#ffffff;stroke:#000000;stroke-opacity:1;stroke-width:5.0000001;stroke-miterlimit:4;stroke-dasharray:none" />
	<path
   d="M303.85,138.388c-8.284,0-15,6.716-15,15v127.347c0,21.034-17.113,38.147-38.147,38.147H68.904   c-21.035,0-38.147-17.113-38.147-38.147V100.413c0-21.034,17.113-38.147,38.147-38.147h131.587c8.284,0,15-6.716,15-15   s-6.716-15-15-15H68.904c-37.577,0-68.147,30.571-68.147,68.147v180.321c0,37.576,30.571,68.147,68.147,68.147h181.798   c37.576,0,68.147-30.571,68.147-68.147V153.388C318.85,145.104,312.134,138.388,303.85,138.388z"
   id="path4"
   style="fill:#ffffff;stroke:#000000;stroke-opacity:1;stroke-width:5.0000001;stroke-miterlimit:4;stroke-dasharray:none" />
</g>
<g
   id="g8">
</g>
<g
   id="g10">
</g>
<g
   id="g12">
</g>
<g
   id="g14">
</g>
<g
   id="g16">
</g>
<g
   id="g18">
</g>
<g
   id="g20">
</g>
<g
   id="g22">
</g>
<g
   id="g24">
</g>
<g
   id="g26">
</g>
<g
   id="g28">
</g>
<g
   id="g30">
</g>
<g
   id="g32">
</g>
<g
   id="g34">
</g>
<g
   id="g36">
</g>
</svg>