<?xml version="1.0" encoding="UTF-8" standalone="no"?>
<svg
   xmlns:dc="http://purl.org/dc/elements/1.1/"
   xmlns:cc="http://creativecommons.org/ns#"
   xmlns:rdf="http://www.w3.org/1999/02/22-rdf-syntax-ns#"
   xmlns:svg="http://www.w3.org/2000/svg"
   xmlns="http://www.w3.org/2000/svg"
   xmlns:sodipodi="http://sodipodi.sourceforge.net/DTD/sodipodi-0.dtd"
   xmlns:inkscape="http://www.inkscape.org/namespaces/inkscape"
   enable-background="new 0 0 24 24"
   height="24"
   viewBox="0 0 24 24"
   width="24"
   version="1.1"
   id="svg6"
   sodipodi:docname="dark-theme-iconset.svg"
   inkscape:version="0.92.3 (2405546, 2018-03-11)"
   inkscape:export-filename="D:\workspace2018\ase-abschlussprojekte-ws1920-digitales-inventar\docs\icons\tick19x50px.png"
   inkscape:export-xdpi="22.758129"
   inkscape:export-ydpi="22.758129">
  <metadata
     id="metadata12">
    <rdf:RDF>
      <cc:Work
         rdf:about="">
        <dc:format>image/svg+xml</dc:format>
        <dc:type
           rdf:resource="http://purl.org/dc/dcmitype/StillImage" />
        <dc:title />
      </cc:Work>
    </rdf:RDF>
  </metadata>
  <defs
     id="defs10">
    <filter
       style="color-interpolation-filters:sRGB;"
       inkscape:label="Blur"
       id="filter1727">
      <feGaussianBlur
         stdDeviation="1.5 1.5"
         result="blur"
         id="feGaussianBlur1725" />
    </filter>
    <filter
       style="color-interpolation-filters:sRGB;"
       inkscape:label="Blur"
       id="filter1731">
      <feGaussianBlur
         stdDeviation="1.5 1.5"
         result="blur"
         id="feGaussianBlur1729" />
    </filter>
    <filter
       style="color-interpolation-filters:sRGB;"
       inkscape:label="Blur"
       id="filter1735">
      <feGaussianBlur
         stdDeviation="1.5 1.5"
         result="blur"
         id="feGaussianBlur1733" />
    </filter>
    <filter
       style="color-interpolation-filters:sRGB;"
       inkscape:label="Blur"
       id="filter1739">
      <feGaussianBlur
         stdDeviation="1.5 1.5"
         result="blur"
         id="feGaussianBlur1737" />
    </filter>
    <filter
       style="color-interpolation-filters:sRGB;"
       inkscape:label="Blur"
       id="filter1743">
      <feGaussianBlur
         stdDeviation="1.5 1.5"
         result="blur"
         id="feGaussianBlur1741" />
    </filter>
    <filter
       style="color-interpolation-filters:sRGB;"
       inkscape:label="Blur"
       id="filter1747">
      <feGaussianBlur
         stdDeviation="1.5 1.5"
         result="blur"
         id="feGaussianBlur1745" />
    </filter>
    <filter
       style="color-interpolation-filters:sRGB;"
       inkscape:label="Blur"
       id="filter1751">
      <feGaussianBlur
         stdDeviation="1.5 1.5"
         result="blur"
         id="feGaussianBlur1749" />
    </filter>
    <filter
       style="color-interpolation-filters:sRGB;"
       inkscape:label="Blur"
       id="filter1755">
      <feGaussianBlur
         stdDeviation="1.5 1.5"
         result="blur"
         id="feGaussianBlur1753" />
    </filter>
    <filter
       style="color-interpolation-filters:sRGB;"
       inkscape:label="Blur"
       id="filter1759">
      <feGaussianBlur
         stdDeviation="1.5 1.5"
         result="blur"
         id="feGaussianBlur1757" />
    </filter>
    <filter
       style="color-interpolation-filters:sRGB;"
       inkscape:label="Blur"
       id="filter1763">
      <feGaussianBlur
         stdDeviation="1.5 1.5"
         result="blur"
         id="feGaussianBlur1761" />
    </filter>
    <filter
       style="color-interpolation-filters:sRGB;"
       inkscape:label="Blur"
       id="filter929">
      <feGaussianBlur
         stdDeviation="1 1"
         result="fbSourceGraphic"
         id="feGaussianBlur927" />
      <feColorMatrix
         result="fbSourceGraphicAlpha"
         in="fbSourceGraphic"
         values="0 0 0 -1 0 0 0 0 -1 0 0 0 0 -1 0 0 0 0 1 0"
         id="feColorMatrix935" />
      <feGaussianBlur
         id="feGaussianBlur937"
         stdDeviation="1 1"
         result="blur"
         in="fbSourceGraphic" />
    </filter>
    <filter
       style="color-interpolation-filters:sRGB;"
       inkscape:label="Blur"
       id="filter933">
      <feGaussianBlur
         stdDeviation="1 1"
         result="fbSourceGraphic"
         id="feGaussianBlur931" />
      <feColorMatrix
         result="fbSourceGraphicAlpha"
         in="fbSourceGraphic"
         values="0 0 0 -1 0 0 0 0 -1 0 0 0 0 -1 0 0 0 0 1 0"
         id="feColorMatrix939" />
      <feGaussianBlur
         id="feGaussianBlur941"
         stdDeviation="1 1"
         result="blur"
         in="fbSourceGraphic" />
    </filter>
  </defs>
  <sodipodi:namedview
     pagecolor="#ffffff"
     bordercolor="#666666"
     borderopacity="1"
     objecttolerance="10"
     gridtolerance="10"
     guidetolerance="10"
     inkscape:pageopacity="0"
     inkscape:pageshadow="2"
     inkscape:window-width="1920"
     inkscape:window-height="1057"
     id="namedview8"
     showgrid="false"
     inkscape:zoom="2"
     inkscape:cx="-1.5707519"
     inkscape:cy="-11.161476"
     inkscape:window-x="-8"
     inkscape:window-y="-8"
     inkscape:window-maximized="1"
     inkscape:current-layer="svg6"
     showguides="false" />
  <path
     inkscape:export-ydpi="104"
     inkscape:export-xdpi="104"
     inkscape:export-filename="D:\workspace2018\ase-abschlussprojekte-ws1920-digitales-inventar\DigitalesInventar\app\src\main\res\drawable\back74x50.png"
     id="path925"
     d="m -239.62701,-107.98003 a 18.457626,18.457626 0 0 0 -18.45703,18.457028 18.457626,18.457626 0 0 0 18.45703,18.45703 18.457626,18.457626 0 0 0 18.45703,-18.45703 18.457626,18.457626 0 0 0 -18.45703,-18.457028 z m -3.57031,10.693358 c 0.11735,-0.002 0.24624,0.0103 0.3789,0.041 0.26533,0.0614 0.547,0.19742 0.79492,0.44532 0.49444,0.49444 0.54057,1.1342 0.43164,1.48046 -0.0618,0.19642 -0.15922,0.36059 -0.24023,0.47266 -0.0405,0.056 -0.0752,0.0979 -0.0996,0.125 -0.0122,0.0136 -0.0243,0.0242 -0.0293,0.0293 -0.002,0.003 -0.002,0.006 -0.002,0.006 a 0.4184878,0.4184878 0 0 0 -0.0117,0.01 l -0.004,0.004 -3.58204,3.59375 a 0.4184878,0.4184878 0 0 0 0.29493,0.71289 h 17.04492 a 0.4184878,0.4184878 0 0 0 0.008,0 c 0,0 0.37918,-6.9e-4 0.77539,0.19141 0.34981,0.16961 0.8125,0.65486 0.8125,1.36328 1e-5,0.70842 -0.46269,1.19366 -0.8125,1.36328 -0.39643,0.19188 -0.77539,0.18945 -0.77539,0.18945 a 0.4184878,0.4184878 0 0 0 -0.008,0 h -17.04492 a 0.4184878,0.4184878 0 0 0 -0.29493,0.71484 l 3.58594,3.59766 a 0.4184878,0.4184878 0 0 0 0.006,0.004 c 0,0 0.2773,0.27156 0.42969,0.69336 0.13459,0.37251 0.12794,1.05565 -0.37305,1.55664 -0.50058,0.50058 -1.18648,0.50749 -1.55859,0.37304 -0.42137,-0.15223 -0.6875,-0.42968 -0.6875,-0.42968 a 0.4184878,0.4184878 0 0 0 -0.008,-0.006 l -8.0586,-8.05664 8.06055,-8.06055 0.002,-0.004 a 0.4184878,0.4184878 0 0 0 0.004,0 c 0,0 0.25111,-0.25067 0.64844,-0.36718 0.0887,-0.026 0.19514,-0.0412 0.3125,-0.043 z"
     style="opacity:1;fill:#bb86fc;fill-opacity:1;fill-rule:evenodd;stroke:none;stroke-width:15.11351776;stroke-linecap:round;stroke-linejoin:round;stroke-miterlimit:4;stroke-dasharray:none;stroke-dashoffset:0;stroke-opacity:1;paint-order:normal;filter:url(#filter933)"
     inkscape:connector-curvature="0" />
  <path
     inkscape:export-ydpi="86.687798"
     inkscape:export-xdpi="86.687798"
     inkscape:export-filename="D:\workspace2018\ase-abschlussprojekte-ws1920-digitales-inventar\DigitalesInventar\app\src\main\res\drawable\tick64x50px.png"
     id="path923"
     d="m -132.91996,-88.871192 a 18.457626,18.457626 0 0 0 -18.45703,18.45704 18.457626,18.457626 0 0 0 18.45703,18.45703 18.457626,18.457626 0 0 0 18.45703,-18.45703 18.457626,18.457626 0 0 0 -18.45703,-18.45704 z m 11.35351,9.75391 h 0.002 c 0.97221,-3e-4 1.77373,0.80121 1.77343,1.77344 v 0.004 c -0.002,0.46997 -0.11187,0.80517 -0.38867,1.10546 l -7.70703,7.7129 -9.46875,9.47656 -7.9707,-7.97266 a 0.32636337,0.32636337 0 0 0 -0.008,-0.0117 c -0.39088,-0.35923 -0.62531,-0.86131 -0.625,-1.35156 -6e-5,-0.50495 0.22687,-0.94684 0.54101,-1.26367 0.31945,-0.32219 0.70719,-0.52551 1.1543,-0.52735 0.33318,-10e-4 0.61518,0.051 0.84765,0.16797 0.24232,0.12189 0.40838,0.28023 0.60938,0.48047 l 5.2207,5.22071 a 0.32636337,0.32636337 0 0 0 0.46094,0 c 0.92588,-0.92431 14.44331,-14.41704 14.47852,-14.45118 0.31286,-0.28692 0.59805,-0.36227 1.08007,-0.36328 z"
     style="opacity:1;fill:#bb86fc;fill-opacity:1;fill-rule:evenodd;stroke:none;stroke-width:15.11351776;stroke-linecap:round;stroke-linejoin:round;stroke-miterlimit:4;stroke-dasharray:none;stroke-dashoffset:0;stroke-opacity:1;paint-order:normal;filter:url(#filter929)"
     inkscape:connector-curvature="0" />
  <rect
     style="fill:#acacf7;fill-opacity:1;fill-rule:evenodd;stroke:none;stroke-width:1.17716539px;stroke-linecap:butt;stroke-linejoin:miter;stroke-opacity:1"
     id="rect906"
     width="18.6875"
     height="18.6875"
     x="-181.375"
     y="69.125" />
  <path
     inkscape:export-ydpi="129.16666"
     inkscape:export-xdpi="129.16666"
     style="fill:#e3d7f4;fill-opacity:1;filter:url(#filter1759)"
     inkscape:connector-curvature="0"
     d="m -205.0611,138.69914 c 0.04,-0.3 0.06,-0.61 0.06,-0.94 0,-0.32 -0.02,-0.64 -0.07,-0.94 l 2.03,-1.58 c 0.18,-0.14 0.23,-0.41 0.12,-0.61 l -1.92,-3.32 c -0.12,-0.22 -0.37,-0.29 -0.59,-0.22 l -2.39,0.96 c -0.5,-0.38 -1.03,-0.7 -1.62,-0.94 l -0.36,-2.54 c -0.04,-0.24 -0.24,-0.41 -0.48,-0.41 h -3.84 c -0.24,0 -0.43,0.17 -0.47,0.41 l -0.36,2.54 c -0.59,0.24 -1.13,0.57 -1.62,0.94 l -2.39,-0.96 c -0.22,-0.08 -0.47,0 -0.59,0.22 l -1.91,3.32 c -0.12,0.21 -0.08,0.47 0.12,0.61 l 2.03,1.58 c -0.05,0.3 -0.09,0.63 -0.09,0.94 0,0.31 0.02,0.64 0.07,0.94 l -2.03,1.58 c -0.18,0.14 -0.23,0.41 -0.12,0.61 l 1.92,3.32 c 0.12,0.22 0.37,0.29 0.59,0.22 l 2.39,-0.96 c 0.5,0.38 1.03,0.7 1.62,0.94 l 0.36,2.54 c 0.05,0.24 0.24,0.41 0.48,0.41 h 3.84 c 0.24,0 0.44,-0.17 0.47,-0.41 l 0.36,-2.54 c 0.59,-0.24 1.13,-0.56 1.62,-0.94 l 2.39,0.96 c 0.22,0.08 0.47,0 0.59,-0.22 l 1.92,-3.32 c 0.12,-0.22 0.07,-0.47 -0.12,-0.61 z m -7.14,2.66 c -1.98,0 -3.6,-1.62 -3.6,-3.6 0,-1.98 1.62,-3.6 3.6,-3.6 1.98,0 3.6,1.62 3.6,3.6 0,1.98 -1.62,3.6 -3.6,3.6 z"
     id="path895"
     inkscape:export-filename="D:\workspace2018\ase-abschlussprojekte-ws1920-digitales-inventar\DigitalesInventar\app\src\main\res\drawable\settings30px.png" />
  <path
     inkscape:export-ydpi="168.88884"
     inkscape:export-xdpi="168.88884"
     style="fill:#e3d7f4;fill-opacity:1;filter:url(#filter1763)"
     inkscape:connector-curvature="0"
     id="path897"
     d="m -214.15106,155.31802 -4,3.99 h 3 v 7.01 c 0,0 0,0.95312 1,0.95312 1,0 1,-0.95312 1,-0.95312 v -7.01 h 3 z m 6,18 -4,-3.99 h 3 v -7.01 c 0,0 0,-0.95312 1,-0.95312 1,0 1,0.95312 1,0.95312 v 7.01 h 3 z"
     inkscape:export-filename="D:\workspace2018\ase-abschlussprojekte-ws1920-digitales-inventar\DigitalesInventar\app\src\main\res\drawable\swap30px.png" />
  <path
     style="opacity:1;fill:#e3d7f4;fill-opacity:1;fill-rule:evenodd;stroke:none;stroke-width:15.11351776;stroke-linecap:round;stroke-linejoin:round;stroke-miterlimit:4;stroke-dasharray:none;stroke-dashoffset:0;stroke-opacity:1;paint-order:normal;filter:url(#filter1727)"
     d="m -253.15636,15.992641 a 18.457626,18.457626 0 0 0 -18.45703,18.45703 18.457626,18.457626 0 0 0 18.45703,18.45703 18.457626,18.457626 0 0 0 18.45899,-18.45703 18.457626,18.457626 0 0 0 -18.45899,-18.45703 z m 7.12305,6.97266 h 2 v 3 h 3 v 2 h -3 v 2.99023 c 0,0 -1.99,0.01 -2,0 v -2.99023 h -3 c 0,0 0.01,-1.99 0,-2 h 3 z m -14.98438,3 h 10.79297 v 3.02539 h 3.11328 v 3.02343 h 3.56446 v 11.42188 c 0,1.37267 -1.12343,2.49609 -2.4961,2.49609 h -14.97461 c -1.37267,0 -2.49609,-1.12342 -2.49609,-2.49609 v -14.97461 c 0,-1.37267 1.12342,-2.49609 2.49609,-2.49609 z m 9.98438,11.23047 -3.74414,4.99218 -2.4961,-3.74414 -3.74414,4.99219 h 14.97461 z"
     id="path899"
     inkscape:export-xdpi="86.68"
     inkscape:export-ydpi="86.68"
     inkscape:connector-curvature="0"
     inkscape:export-filename="D:\workspace2018\ase-abschlussprojekte-ws1920-digitales-inventar\DigitalesInventar\app\src\main\res\drawable\add_pic_from_gallery40px.png" />
  <path
     inkscape:connector-curvature="0"
     style="opacity:1;fill:#e3d7f4;fill-opacity:1;fill-rule:evenodd;stroke:none;stroke-width:15.11351776;stroke-linecap:round;stroke-linejoin:round;stroke-miterlimit:4;stroke-dasharray:none;stroke-dashoffset:0;stroke-opacity:1;paint-order:normal;filter:url(#filter1731)"
     d="m -296.3421,11.969707 a 18.457626,18.457626 0 0 0 -18.45898,18.45703 18.457626,18.457626 0 0 0 18.45898,18.45703 18.457626,18.457626 0 0 0 18.45703,-18.45703 18.457626,18.457626 0 0 0 -18.45703,-18.45703 z m -9.51757,7.14453 h 2 v 3 h 3 v 2 h -3 v 3 h -2 v -3 h -3 v -2 h 3 z m 6,3 h 7 l 1.83007,2 h 3.16993 c 1.1,0 2,0.9 2,2 v 12 c 0,1.1 -0.9,2 -2,2 h -16 c -1.1,0 -2,-0.9 -2,-2 v -10 h 3 v -3 h 3 z m 4,5 c -2.76,0 -5,2.24 -5,5 0,2.76 2.24,5 5,5 2.76,0 5,-2.24 5,-5 0,-2.76 -2.24,-5 -5,-5 z m 0,1.79883 c 1.77,0 3.19921,1.43117 3.19921,3.20117 0,1.77 -1.42921,3.19922 -3.19921,3.19922 -1.77,0 -3.19922,-1.42922 -3.19922,-3.19922 0,-1.77 1.42922,-3.20117 3.19922,-3.20117 z"
     id="path901"
     inkscape:export-xdpi="86.68"
     inkscape:export-ydpi="86.68"
     inkscape:export-filename="D:\workspace2018\ase-abschlussprojekte-ws1920-digitales-inventar\DigitalesInventar\app\src\main\res\drawable\add_pic_from_cam40px.png" />
  <path
     style="opacity:1;fill:#e3d7f4;fill-opacity:1;fill-rule:evenodd;stroke:none;stroke-width:15.11351776;stroke-linecap:round;stroke-linejoin:round;stroke-miterlimit:4;stroke-dasharray:none;stroke-dashoffset:0;stroke-opacity:1;paint-order:normal;filter:url(#filter1735)"
     d="m -207.56494,16.886561 a 18.457626,18.457626 0 0 0 -18.45703,18.45703 18.457626,18.457626 0 0 0 18.45703,18.45703 18.457626,18.457626 0 0 0 18.45703,-18.45703 18.457626,18.457626 0 0 0 -18.45703,-18.45703 z m 8.67382,7.82031 c 0.30132,0 0.60357,0.11528 0.83399,0.3457 l 1.58203,1.58399 c 0.46084,0.46084 0.46084,1.20517 0,1.66601 l -10.58789,10.58789 -3.24805,-3.25 10.58594,-10.58789 c 0.23042,-0.23042 0.53267,-0.3457 0.83398,-0.3457 z m -13.7832,13.00195 c 1.96153,0 3.54492,1.5834 3.54492,3.54492 0,2.61143 -2.11513,4.72657 -4.72656,4.72657 -1.78428,0 -3.63945,-0.92168 -4.72656,-2.36328 0.99258,0 2.36328,-0.81534 2.36328,-2.36329 0,-1.96152 1.5834,-3.54492 3.54492,-3.54492 z"
     id="path903"
     inkscape:export-xdpi="65.015877"
     inkscape:export-ydpi="65.015877"
     inkscape:connector-curvature="0"
     inkscape:export-filename="D:\workspace2018\ase-abschlussprojekte-ws1920-digitales-inventar\DigitalesInventar\app\src\main\res\drawable\brush30px.png" />
  <path
     inkscape:connector-curvature="0"
     id="path907"
     d="m -234.22832,64.381461 c -5.51,0 -10,4.49 -10,10 0,5.51 4.49,10 10,10 5.51,0 9.99999,-4.49 9.99999,-10 0,-5.51 -4.48999,-10 -9.99999,-10 z m 0,2 c 4.41,0 7.99999,3.59 7.99999,8 0,4.41 -3.58999,8 -7.99999,8 -4.41,0 -8,-3.59 -8,-8 0,-0.27562 0.0137,-0.54786 0.041,-0.8164 0.41056,-4.02814 3.82461,-7.1836 7.95898,-7.1836 z m 0,2.80079 c -1,0 -1,0.97265 -1,0.97265 v 3.22656 h -3.22657 c 0,0 -0.97265,0 -0.97265,1 0,1 0.97265,1 0.97265,1 h 3.22657 v 3.22657 c 0,0 0,0.97265 1,0.97265 1,0 1,-0.97265 1,-0.97265 v -3.22657 h 3.22656 c 0,0 0.9707,0 0.9707,-1 0,-1 -0.9707,-1 -0.9707,-1 h -3.22656 v -3.22656 c 0,0 0,-0.97265 -1,-0.97265 z"
     style="fill:#e3d7f4;fill-opacity:1;filter:url(#filter1743)"
     inkscape:export-xdpi="120"
     inkscape:export-ydpi="120"
     inkscape:export-filename="D:\workspace2018\ase-abschlussprojekte-ws1920-digitales-inventar\DigitalesInventar\app\src\main\res\drawable\plus30px.png" />
  <path
     style="opacity:1;fill:#e3d7f4;fill-opacity:1;fill-rule:evenodd;stroke:none;stroke-width:15.11351776;stroke-linecap:round;stroke-linejoin:round;stroke-miterlimit:4;stroke-dasharray:none;stroke-dashoffset:0;stroke-opacity:1;paint-order:normal;filter:url(#filter1751)"
     d="m -273.14883,55.784421 a 18.457626,18.457626 0 0 0 -18.45703,18.45899 18.457626,18.457626 0 0 0 18.45703,18.45703 18.457626,18.457626 0 0 0 18.45703,-18.45703 18.457626,18.457626 0 0 0 -18.45703,-18.45899 z m 6.99414,6.58789 h 2.48047 v 3.72071 h 3.7207 v 2.48046 h -3.7207 v 3.70899 c 0,0 -2.46807,0.0124 -2.48047,0 v -3.70899 h -3.7207 c 0,0 0.0124,-2.46806 0,-2.48046 h 3.7207 z m -14.88086,3.72071 h 8.67969 v 2.48046 h -8.67969 v 15.1543 h 14.88086 v -8.95312 h 2.48047 v 8.68164 c 0,1.36414 -1.11633,2.47851 -2.48047,2.47851 h -14.88086 c -1.36415,0 -2.48047,-1.11437 -2.48047,-2.47851 v -14.88282 c 0,-1.36414 1.11632,-2.48046 2.48047,-2.48046 z m 2.48047,4.96093 h 9.91992 v 2.48047 h -9.91992 z m 0,3.72071 h 6.19922 3.7207 v 2.48047 h -9.91992 z m 0,3.7207 h 9.91992 v 2.48047 h -9.91992 z"
     id="path911"
     inkscape:connector-curvature="0"
     inkscape:export-xdpi="65.019997"
     inkscape:export-ydpi="65.019997"
     inkscape:export-filename="D:\workspace2018\ase-abschlussprojekte-ws1920-digitales-inventar\DigitalesInventar\app\src\main\res\drawable\edit30px.png" />
  <path
     inkscape:connector-curvature="0"
     d="m -206.7022,116.25389 h -0.79 l -0.28,-0.27 c 0.98,-1.14 1.57,-2.62 1.57,-4.23 0,-3.59 -2.91,-6.5 -6.5,-6.5 -3.59,0 -6.5,2.91 -6.5,6.5 0,3.59 2.91,6.5 6.5,6.5 1.61,0 3.09,-0.59 4.23,-1.57 l 0.27,0.28 v 0.79 l 5,4.99 c 0,0 0.71816,0.7292 1.46316,-0.0158 0.745,-0.745 0.0268,-1.4742 0.0268,-1.4742 z m -6,0 c -2.49,0 -4.5,-2.01 -4.5,-4.5 0,-2.49 2.01,-4.5 4.5,-4.5 2.49,0 4.5,2.01 4.5,4.5 0,2.49 -2.01,4.5 -4.5,4.5 z"
     id="path913"
     sodipodi:nodetypes="cccsssscccczccsssss"
     style="fill:#e3d7f4;fill-opacity:1;filter:url(#filter1755)"
     inkscape:export-xdpi="134.75989"
     inkscape:export-ydpi="134.75989"
     inkscape:export-filename="D:\workspace2018\ase-abschlussprojekte-ws1920-digitales-inventar\DigitalesInventar\app\src\main\res\drawable\search30px.png" />
  <circle
     r="18.457626"
     cy="90.400925"
     cx="-56.298279"
     id="circle992"
     style="opacity:1;fill:#bb86fc;fill-opacity:1;fill-rule:evenodd;stroke:none;stroke-width:15.11351776;stroke-linecap:round;stroke-linejoin:round;stroke-miterlimit:4;stroke-dasharray:none;stroke-dashoffset:0;stroke-opacity:1;paint-order:normal" />
  <circle
     r="18.457626"
     cy="46.435658"
     cx="-57.592644"
     id="circle909"
     style="opacity:1;fill:#bb86fc;fill-opacity:1;fill-rule:evenodd;stroke:none;stroke-width:15.11351776;stroke-linecap:round;stroke-linejoin:round;stroke-miterlimit:4;stroke-dasharray:none;stroke-dashoffset:0;stroke-opacity:1;paint-order:normal" />
  <path
     style="opacity:1;fill:#bb86fc;fill-opacity:1;fill-rule:evenodd;stroke:none;stroke-width:15.11351776;stroke-linecap:round;stroke-linejoin:round;stroke-miterlimit:4;stroke-dasharray:none;stroke-dashoffset:0;stroke-opacity:1;paint-order:normal"
     d="M 75.29474,-14.766503 A 18.457626,18.457626 0 0 0 56.837708,3.6905274 18.457626,18.457626 0 0 0 75.29474,22.147558 18.457626,18.457626 0 0 0 93.753724,3.6905274 18.457626,18.457626 0 0 0 75.29474,-14.766503 Z m 7.123046,6.9726556 h 2 v 3 h 3.000001 v 1.9999998 h -3.000001 v 2.99023505 c 0,0 -1.99,0.01 -2,0 V -2.7938476 h -3 c 0,0 0.01,-1.9899998 0,-1.9999998 h 3 z m -14.984375,3 H 78.22638 v 3.0253908 h 3.113281 v 3.023437 h 3.564454 V 12.676855 c 0,1.37267 -1.123425,2.496094 -2.496094,2.496094 h -14.97461 c -1.372669,0 -2.496093,-1.123424 -2.496093,-2.496094 V -2.2977536 c 0,-1.3726698 1.123424,-2.4960938 2.496093,-2.4960938 z m 9.984375,11.2304688 -3.74414,4.9921866 -2.496094,-3.7441396 -3.744141,4.9921866 h 14.97461 z"
     id="circle895"
     inkscape:export-xdpi="104.0254"
     inkscape:export-ydpi="104.0254"
     inkscape:connector-curvature="0" />
  <circle
     style="opacity:1;fill:#bb86fc;fill-opacity:1;fill-rule:evenodd;stroke:none;stroke-width:15.11351776;stroke-linecap:round;stroke-linejoin:round;stroke-miterlimit:4;stroke-dasharray:none;stroke-dashoffset:0;stroke-opacity:1;paint-order:normal"
     id="path822"
     cx="-16.423729"
     cy="4.1186442"
     r="18.457626" />
  <rect
     fill="none"
     height="24"
     width="24"
     id="rect2" />
  <path
     d="m -25.940678,-4.1949151 v -3 h 2 v 3 h 3 v 2 h -3 v 2.99999998 h -2 V -2.1949151 h -3 v -2 z m 3,6 v -3 h 3 v -3 h 7 l 1.83,2 h 3.1699999 c 1.1,0 2,0.9 2,2.00000002 V 11.805085 c 0,1.1 -0.9,2 -2,2 H -23.940678 c -1.1,0 -2,-0.9 -2,-2 V 1.8050849 Z m 7,9.0000001 c 2.76,0 5,-2.2400001 5,-5.0000001 0,-2.76 -2.24,-5.00000002 -5,-5.00000002 -2.76,0 -5,2.24000002 -5,5.00000002 0,2.76 2.24,5.0000001 5,5.0000001 z m -3.2,-5.0000001 c 0,1.77 1.43,3.2 3.2,3.2 1.77,0 3.2,-1.43 3.2,-3.2 0,-1.77 -1.43,-3.2 -3.2,-3.2 -1.77,0 -3.2,1.43 -3.2,3.2 z"
     id="path4"
     inkscape:connector-curvature="0" />
  <path
     style="opacity:1;fill:#bb86fc;fill-opacity:1;fill-rule:evenodd;stroke:none;stroke-width:15.11351776;stroke-linecap:round;stroke-linejoin:round;stroke-miterlimit:4;stroke-dasharray:none;stroke-dashoffset:0;stroke-opacity:1;paint-order:normal"
     d="M 35.644531 -15.253906 A 18.457626 18.457626 0 0 0 17.185547 3.203125 A 18.457626 18.457626 0 0 0 35.644531 21.660156 A 18.457626 18.457626 0 0 0 54.101562 3.203125 A 18.457626 18.457626 0 0 0 35.644531 -15.253906 z M 26.126953 -8.109375 L 28.126953 -8.109375 L 28.126953 -5.109375 L 31.126953 -5.109375 L 31.126953 -3.109375 L 28.126953 -3.109375 L 28.126953 -0.109375 L 26.126953 -0.109375 L 26.126953 -3.109375 L 23.126953 -3.109375 L 23.126953 -5.109375 L 26.126953 -5.109375 L 26.126953 -8.109375 z M 32.126953 -5.109375 L 39.126953 -5.109375 L 40.957031 -3.109375 L 44.126953 -3.109375 C 45.226953 -3.109375 46.126953 -2.209375 46.126953 -1.109375 L 46.126953 10.890625 C 46.126953 11.990625 45.226953 12.890625 44.126953 12.890625 L 28.126953 12.890625 C 27.026953 12.890625 26.126953 11.990625 26.126953 10.890625 L 26.126953 0.890625 L 29.126953 0.890625 L 29.126953 -2.109375 L 32.126953 -2.109375 L 32.126953 -5.109375 z M 36.126953 -0.109375 C 33.366953 -0.109375 31.126953 2.130625 31.126953 4.890625 C 31.126953 7.650625 33.366953 9.890625 36.126953 9.890625 C 38.886953 9.890625 41.126953 7.650625 41.126953 4.890625 C 41.126953 2.130625 38.886953 -0.109375 36.126953 -0.109375 z M 36.126953 1.6894531 C 37.896953 1.6894531 39.326172 3.120625 39.326172 4.890625 C 39.326172 6.660625 37.896953 8.0898438 36.126953 8.0898438 C 34.356953 8.0898438 32.927734 6.660625 32.927734 4.890625 C 32.927734 3.120625 34.356953 1.6894531 36.126953 1.6894531 z "
     id="circle824"
     inkscape:export-xdpi="104.0254"
     inkscape:export-ydpi="104.0254" />
  <circle
     style="opacity:1;fill:#bb86fc;fill-opacity:1;fill-rule:evenodd;stroke:none;stroke-width:15.11351776;stroke-linecap:round;stroke-linejoin:round;stroke-miterlimit:4;stroke-dasharray:none;stroke-dashoffset:0;stroke-opacity:1;paint-order:normal"
     id="circle898"
     cx="-56.298279"
     cy="4.8410096"
     r="18.457626" />
  <path
     inkscape:connector-curvature="0"
     id="path900"
     d="m -49.17669,-6.6423867 v 3 h -3 c 0.01,0.01 0,2 0,2 h 3 v 2.990234 c 0.01,0.01 2,0 2,0 v -2.990234 h 3 v -2 h -3 v -3 z m -14.984375,3 c -1.37267,0 -2.496093,1.123424 -2.496093,2.496094 V 13.828316 c 0,1.37267 1.123423,2.496094 2.496093,2.496094 h 14.97461 c 1.372669,0 2.496094,-1.123424 2.496094,-2.496094 V 2.4064413 h -3.564454 v -3.02343701 h -3.113281 V -3.6423867 Z m 9.984375,11.230469 4.990235,6.2402337 h -14.97461 l 3.744141,-4.9921867 2.496094,3.7441397 z" />
  <path
     inkscape:connector-curvature="0"
     d="m -62.702377,48.800419 c -1.961524,0 -3.544923,1.583399 -3.544923,3.544924 0,1.54795 -1.370704,2.363282 -2.363283,2.363282 1.08711,1.441603 2.942287,2.363283 4.726565,2.363283 2.611427,0 4.726565,-2.115138 4.726565,-4.726565 0,-1.961525 -1.583399,-3.544924 -3.544924,-3.544924 z m 16.200305,-11.07198 -1.583399,-1.583399 c -0.460843,-0.46084 -1.205277,-0.46084 -1.666117,0 l -10.587506,10.587506 3.249514,3.249514 10.587508,-10.587506 c 0.46084,-0.46084 0.46084,-1.205274 0,-1.666115 z"
     id="path4-8"
     style="stroke-width:1.18164134" />
  <path
     style="opacity:1;fill:#bb86fc;fill-opacity:1;fill-rule:evenodd;stroke:none;stroke-width:15.11351776;stroke-linecap:round;stroke-linejoin:round;stroke-miterlimit:4;stroke-dasharray:none;stroke-dashoffset:0;stroke-opacity:1;paint-order:normal"
     d="M 120.88616,-13.872588 A 18.457626,18.457626 0 0 0 102.42913,4.5844428 18.457626,18.457626 0 0 0 120.88616,23.041474 18.457626,18.457626 0 0 0 139.34319,4.5844428 18.457626,18.457626 0 0 0 120.88616,-13.872588 Z m 8.67382,7.8203118 c 0.30132,0 0.60357,0.115284 0.83399,0.345703 l 1.58203,1.583985 c 0.46084,0.460841 0.46084,1.205176 0,1.666015 l -10.58789,10.587891 -3.24805,-3.25 10.58594,-10.587891 c 0.23042,-0.23042 0.53267,-0.345703 0.83398,-0.345703 z m -13.7832,13.001953 c 1.96153,0 3.54492,1.583397 3.54492,3.5449222 0,2.611427 -2.11513,4.726563 -4.72656,4.726563 -1.78428,0 -3.63945,-0.921678 -4.72656,-2.363281 0.99258,0 2.36328,-0.815332 2.36328,-2.363282 0,-1.9615252 1.5834,-3.5449222 3.54492,-3.5449222 z"
     id="circle911"
     inkscape:export-xdpi="78.019051"
     inkscape:export-ydpi="78.019051"
     inkscape:connector-curvature="0" />
  <path
     style="color:#000000;font-style:normal;font-variant:normal;font-weight:normal;font-stretch:normal;font-size:medium;line-height:normal;font-family:sans-serif;font-variant-ligatures:normal;font-variant-position:normal;font-variant-caps:normal;font-variant-numeric:normal;font-variant-alternates:normal;font-feature-settings:normal;text-indent:0;text-align:start;text-decoration:none;text-decoration-line:none;text-decoration-style:solid;text-decoration-color:#000000;letter-spacing:normal;word-spacing:normal;text-transform:none;writing-mode:lr-tb;direction:ltr;text-orientation:mixed;dominant-baseline:auto;baseline-shift:baseline;text-anchor:start;white-space:normal;shape-padding:0;clip-rule:nonzero;display:inline;overflow:visible;visibility:visible;opacity:1;isolation:auto;mix-blend-mode:normal;color-interpolation:sRGB;color-interpolation-filters:linearRGB;solid-color:#000000;solid-opacity:1;vector-effect:none;fill:#000000;fill-opacity:1;fill-rule:nonzero;stroke:none;stroke-width:1;stroke-linecap:butt;stroke-linejoin:miter;stroke-miterlimit:4;stroke-dasharray:none;stroke-dashoffset:0;stroke-opacity:1;color-rendering:auto;image-rendering:auto;shape-rendering:auto;text-rendering:auto;enable-background:accumulate"
     d="m -10.383352,38.613975 c -0.374662,7.82e-4 -0.660802,0.07551 -0.927734,0.320313 -0.0012,0.0011 -0.0027,8.66e-4 -0.0039,0.002 -0.02334,0.02254 -9.673326,9.656877 -10.333984,10.316406 l -3.724609,-3.724609 c -0.143514,-0.142985 -0.284615,-0.28328 -0.494141,-0.388672 -0.209526,-0.105393 -0.449873,-0.143641 -0.710937,-0.142578 -0.390248,0.0016 -0.727245,0.182042 -0.988282,0.445312 -0.261036,0.26327 -0.45317,0.634737 -0.453125,1.064453 -2.65e-4,0.421868 0.195314,0.838745 0.519532,1.136719 l 5.851562,5.853516 6.919922,-6.925782 5.5019533,-5.503906 0.0059,-0.0059 c 0.23961,-0.259933 0.336312,-0.571379 0.337891,-0.947266 v -0.002 c 2.53e-4,-0.821606 -0.676441,-1.4983 -1.4980473,-1.498047 z"
     id="path937"
     inkscape:connector-curvature="0" />
  <path
     inkscape:connector-curvature="0"
     id="path939"
     d="m 129.97734,36.139101 c -0.37466,7.82e-4 -0.6608,0.07551 -0.92773,0.320313 -0.001,0.0011 -0.003,8.66e-4 -0.004,0.002 -0.0233,0.02254 -9.67333,9.656877 -10.33398,10.316406 l -3.72461,-3.724609 c -0.14352,-0.142985 -0.28462,-0.28328 -0.49414,-0.388672 -0.20953,-0.105393 -0.44988,-0.143641 -0.71094,-0.142578 -0.39025,0.0016 -0.72725,0.182042 -0.98828,0.445312 -0.26104,0.26327 -0.45317,0.634737 -0.45313,1.064453 -2.6e-4,0.421868 0.19532,0.838745 0.51953,1.136719 l 5.85157,5.853516 6.91992,-6.925782 5.50195,-5.503906 0.006,-0.0059 c 0.23961,-0.259933 0.33631,-0.571379 0.33789,-0.947266 v -0.002 c 2.5e-4,-0.821606 -0.67644,-1.4983 -1.49805,-1.498047 z"
     style="color:#000000;font-style:normal;font-variant:normal;font-weight:normal;font-stretch:normal;font-size:medium;line-height:normal;font-family:sans-serif;font-variant-ligatures:normal;font-variant-position:normal;font-variant-caps:normal;font-variant-numeric:normal;font-variant-alternates:normal;font-feature-settings:normal;text-indent:0;text-align:start;text-decoration:none;text-decoration-line:none;text-decoration-style:solid;text-decoration-color:#000000;letter-spacing:normal;word-spacing:normal;text-transform:none;writing-mode:lr-tb;direction:ltr;text-orientation:mixed;dominant-baseline:auto;baseline-shift:baseline;text-anchor:start;white-space:normal;shape-padding:0;clip-rule:nonzero;display:inline;overflow:visible;visibility:visible;opacity:1;isolation:auto;mix-blend-mode:normal;color-interpolation:sRGB;color-interpolation-filters:linearRGB;solid-color:#000000;solid-opacity:1;vector-effect:none;fill:#bb86fc;fill-opacity:1;fill-rule:nonzero;stroke:none;stroke-width:1;stroke-linecap:butt;stroke-linejoin:miter;stroke-miterlimit:4;stroke-dasharray:none;stroke-dashoffset:0;stroke-opacity:1;color-rendering:auto;image-rendering:auto;shape-rendering:auto;text-rendering:auto;enable-background:accumulate"
     inkscape:export-xdpi="321.05588"
     inkscape:export-ydpi="321.05588" />
  <path
     d="m -19.267864,61.199483 c -5.51,0 -10,4.49 -10,10 0,5.51 4.49,10 10,10 5.510001,0 9.9999998,-4.49 9.9999998,-10 0,-5.51 -4.4899988,-10 -9.9999998,-10 z m 0,2 c 4.41,0 8,3.59 8,8 0,4.41 -3.589999,8 -8,8 -4.409999,0 -8,-3.59 -8,-8 0,-0.275625 0.01365,-0.547863 0.04102,-0.816406 0.410559,-4.028137 3.824609,-7.183594 7.958984,-7.183594 z m 0,2.800782 c -1,0 -1,0.972656 -1,0.972656 v 3.226562 h -3.226562 c 0,0 -0.972656,0 -0.972656,1 0,1 0.972656,1 0.972656,1 h 3.226562 v 3.226563 c 0,0 0,0.972656 1,0.972656 1,0 1,-0.972656 1,-0.972656 v -3.226563 h 3.226563 c 0,0 0.970703,0 0.970703,-1 0,-1 -0.970703,-1 -0.970703,-1 h -3.226563 v -3.226562 c 0,0 0,-0.972656 -1,-0.972656 z"
     id="path2"
     inkscape:connector-curvature="0" />
  <path
     inkscape:connector-curvature="0"
     id="path956"
     d="m 94.222774,33.622319 c -5.51,0 -10,4.49 -10,10 0,5.51 4.49,10 10,10 5.510001,0 9.999996,-4.49 9.999996,-10 0,-5.51 -4.489995,-10 -9.999996,-10 z m 0,2 c 4.41,0 7.999996,3.59 7.999996,8 0,4.41 -3.589995,8 -7.999996,8 -4.409999,0 -8,-3.59 -8,-8 0,-0.275625 0.01365,-0.547863 0.04102,-0.816406 0.410559,-4.028137 3.824609,-7.183594 7.958984,-7.183594 z m 0,2.800782 c -1,0 -1,0.972656 -1,0.972656 v 3.226562 h -3.226562 c 0,0 -0.972656,0 -0.972656,1 0,1 0.972656,1 0.972656,1 h 3.226562 v 3.226563 c 0,0 0,0.972656 1,0.972656 1,0 1,-0.972656 1,-0.972656 v -3.226563 h 3.226563 c 0,0 0.970703,0 0.970703,-1 0,-1 -0.970703,-1 -0.970703,-1 h -3.226563 v -3.226562 c 0,0 0,-0.972656 -1,-0.972656 z"
     style="fill:#bb86fc;fill-opacity:1"
     inkscape:export-xdpi="144"
     inkscape:export-ydpi="144" />
  <path
     style="color:#000000;font-style:normal;font-variant:normal;font-weight:normal;font-stretch:normal;font-size:medium;line-height:normal;font-family:sans-serif;font-variant-ligatures:normal;font-variant-position:normal;font-variant-caps:normal;font-variant-numeric:normal;font-variant-alternates:normal;font-feature-settings:normal;text-indent:0;text-align:start;text-decoration:none;text-decoration-line:none;text-decoration-style:solid;text-decoration-color:#000000;letter-spacing:normal;word-spacing:normal;text-transform:none;writing-mode:lr-tb;direction:ltr;text-orientation:mixed;dominant-baseline:auto;baseline-shift:baseline;text-anchor:start;white-space:normal;shape-padding:0;clip-rule:nonzero;display:inline;overflow:visible;visibility:visible;opacity:1;isolation:auto;mix-blend-mode:normal;color-interpolation:sRGB;color-interpolation-filters:linearRGB;solid-color:#000000;solid-opacity:1;vector-effect:none;fill:#000000;fill-opacity:1;fill-rule:nonzero;stroke:none;stroke-width:1;stroke-linecap:butt;stroke-linejoin:miter;stroke-miterlimit:4;stroke-dasharray:none;stroke-dashoffset:0;stroke-opacity:1;color-rendering:auto;image-rendering:auto;shape-rendering:auto;text-rendering:auto;enable-background:accumulate"
     d="m -22.837545,88.745881 c -0.386755,0.11341 -0.630859,0.35938 -0.630859,0.35938 l -0.002,0.002 -6.355469,6.35547 6.353515,6.353519 c 0,0 0.249983,0.26104 0.646485,0.40429 0.396502,0.14326 1.039487,0.12067 1.517578,-0.35742 0.478091,-0.47809 0.500677,-1.11912 0.357422,-1.51562 -0.143255,-0.396509 -0.404297,-0.648439 -0.404297,-0.648439 l -2.728469,-2.73638 h 12.964844 c 0,0 0.358817,0.006 0.734375,-0.17578 0.375558,-0.18209 0.7968751,-0.65234 0.7968751,-1.32422 0,-0.67188 -0.4213171,-1.14213 -0.7968751,-1.32422 -0.375558,-0.18209 -0.734375,-0.17578 -0.734375,-0.17578 h -12.964844 l 2.72461,-2.73242 0.0039,-0.004 c 0.0037,-0.003 0.249052,-0.23545 0.36914,-0.61719 0.120984,-0.38457 0.05658,-0.9844 -0.40625,-1.44726 -0.462874,-0.46285 -1.058557,-0.52942 -1.445312,-0.41602 z"
     id="path968"
     inkscape:connector-curvature="0" />
  <path
     inkscape:connector-curvature="0"
     id="path970"
     d="m 118.05348,55.865416 c -0.38675,0.11341 -0.63086,0.35938 -0.63086,0.35938 l -0.002,0.002 -6.35547,6.35547 6.35352,6.353519 c 0,0 0.24998,0.26104 0.64648,0.40429 0.3965,0.14326 1.03949,0.12067 1.51758,-0.35742 0.47809,-0.47809 0.50068,-1.11912 0.35742,-1.51562 -0.14325,-0.396509 -0.40429,-0.648439 -0.40429,-0.648439 l -2.72847,-2.73638 h 12.96484 c 0,0 0.35882,0.006 0.73438,-0.17578 0.37555,-0.18209 0.79687,-0.65234 0.79687,-1.32422 0,-0.67188 -0.42132,-1.14213 -0.79687,-1.32422 -0.37556,-0.18209 -0.73438,-0.17578 -0.73438,-0.17578 h -12.96484 l 2.72461,-2.73242 0.004,-0.004 c 0.004,-0.003 0.24905,-0.23545 0.36914,-0.61719 0.12098,-0.38457 0.0566,-0.9844 -0.40625,-1.44726 -0.46288,-0.46285 -1.05856,-0.52942 -1.44532,-0.41602 z"
     style="color:#000000;font-style:normal;font-variant:normal;font-weight:normal;font-stretch:normal;font-size:medium;line-height:normal;font-family:sans-serif;font-variant-ligatures:normal;font-variant-position:normal;font-variant-caps:normal;font-variant-numeric:normal;font-variant-alternates:normal;font-feature-settings:normal;text-indent:0;text-align:start;text-decoration:none;text-decoration-line:none;text-decoration-style:solid;text-decoration-color:#000000;letter-spacing:normal;word-spacing:normal;text-transform:none;writing-mode:lr-tb;direction:ltr;text-orientation:mixed;dominant-baseline:auto;baseline-shift:baseline;text-anchor:start;white-space:normal;shape-padding:0;clip-rule:nonzero;display:inline;overflow:visible;visibility:visible;opacity:1;isolation:auto;mix-blend-mode:normal;color-interpolation:sRGB;color-interpolation-filters:linearRGB;solid-color:#000000;solid-opacity:1;vector-effect:none;fill:#bb86fc;fill-opacity:1;fill-rule:nonzero;stroke:none;stroke-width:1;stroke-linecap:butt;stroke-linejoin:miter;stroke-miterlimit:4;stroke-dasharray:none;stroke-dashoffset:0;stroke-opacity:1;color-rendering:auto;image-rendering:auto;shape-rendering:auto;text-rendering:auto;enable-background:accumulate"
     inkscape:export-xdpi="351.01703"
     inkscape:export-ydpi="351.01703" />
  <g
     transform="matrix(1.2401316,0,0,1.2401316,-70.385711,76.051027)"
     id="g20"
     style="fill:#000000">
    <g
       id="g6"
       style="fill:#000000" />
    <g
       id="g18"
       style="fill:#000000">
      <path
         id="rect16"
         style="fill:#000000"
         d="m 7,15 h 8 v 2 H 7 Z m 5,-3 H 7 v 2 h 8 V 12 Z M 7,9 h 8 v 2 H 7 Z M 17,19.22 H 5 V 7 h 7 V 5 H 5 C 3.9,5 3,5.9 3,7 v 12 c 0,1.1 0.9,2 2,2 h 12 c 1.1,0 2,-0.9 2,-2 V 12 H 17 Z M 19,2 h -2 v 3 h -3 c 0.01,0.01 0,2 0,2 h 3 v 2.99 c 0.01,0.01 2,0 2,0 V 7 h 3 V 5 h -3 z"
         inkscape:connector-curvature="0" />
    </g>
  </g>
  <g
     style="fill:#000000"
     id="g1047"
     transform="matrix(1.2401316,0,0,1.2401316,23.536908,29.133765)"
     inkscape:export-xdpi="78.014923"
     inkscape:export-ydpi="78.014923">
    <g
       style="fill:#000000"
       id="g1041" />
    <g
       style="fill:#000000"
       id="g1045" />
  </g>
  <path
     inkscape:connector-curvature="0"
     d="m -16.751097,122.24475 h -0.79 l -0.28,-0.27 c 0.98,-1.14 1.57,-2.62 1.57,-4.23 0,-3.59 -2.91,-6.5 -6.5,-6.5 -3.59,0 -6.5,2.91 -6.5,6.5 0,3.59 2.91,6.5 6.5,6.5 1.61,0 3.09,-0.59 4.23,-1.57 l 0.27,0.28 v 0.79 l 5,4.99 c 0,0 0.718155,0.7292 1.463155,-0.0158 0.745,-0.745 0.02684,-1.4742 0.02684,-1.4742 z m -6,0 c -2.49,0 -4.5,-2.01 -4.5,-4.5 0,-2.49 2.01,-4.5 4.5,-4.5 2.49,0 4.5,2.01 4.5,4.5 0,2.49 -2.01,4.5 -4.5,4.5 z"
     id="path2-8"
     sodipodi:nodetypes="cccsssscccczccsssss" />
  <path
     sodipodi:nodetypes="cccsssscccczccsssss"
     id="path1056"
     d="m -16.751097,122.24475 h -0.79 l -0.28,-0.27 c 0.98,-1.14 1.57,-2.62 1.57,-4.23 0,-3.59 -2.91,-6.5 -6.5,-6.5 -3.59,0 -6.5,2.91 -6.5,6.5 0,3.59 2.91,6.5 6.5,6.5 1.61,0 3.09,-0.59 4.23,-1.57 l 0.27,0.28 v 0.79 l 5,4.99 c 0,0 0.718155,0.7292 1.463155,-0.0158 0.745,-0.745 0.02684,-1.4742 0.02684,-1.4742 z m -6,0 c -2.49,0 -4.5,-2.01 -4.5,-4.5 0,-2.49 2.01,-4.5 4.5,-4.5 2.49,0 4.5,2.01 4.5,4.5 0,2.49 -2.01,4.5 -4.5,4.5 z"
     inkscape:connector-curvature="0" />
  <path
     inkscape:connector-curvature="0"
     d="m 121.7489,85.49475 h -0.79 l -0.28,-0.27 c 0.98,-1.14 1.57,-2.62 1.57,-4.23 0,-3.59 -2.91,-6.5 -6.5,-6.5 -3.59,0 -6.5,2.91 -6.5,6.5 0,3.59 2.91,6.5 6.5,6.5 1.61,0 3.09,-0.59 4.23,-1.57 l 0.27,0.28 v 0.79 l 5,4.99 c 0,0 0.71816,0.7292 1.46316,-0.0158 0.745,-0.745 0.0268,-1.4742 0.0268,-1.4742 z m -6,0 c -2.49,0 -4.5,-2.01 -4.5,-4.5 0,-2.49 2.01,-4.5 4.5,-4.5 2.49,0 4.5,2.01 4.5,4.5 0,2.49 -2.01,4.5 -4.5,4.5 z"
     id="path1060"
     sodipodi:nodetypes="cccsssscccczccsssss"
     style="fill:#bb86fc;fill-opacity:1"
     inkscape:export-xdpi="161.78539"
     inkscape:export-ydpi="161.78539" />
  <path
     id="path2-4"
     d="m -34.5,129.5 h 24 v 24 h -24 z"
     inkscape:connector-curvature="0"
     style="fill:none" />
  <path
     id="path4-1"
     d="m -15.36,142.44 c 0.04,-0.3 0.06,-0.61 0.06,-0.94 0,-0.32 -0.02,-0.64 -0.07,-0.94 l 2.03,-1.58 c 0.18,-0.14 0.23,-0.41 0.12,-0.61 l -1.92,-3.32 c -0.12,-0.22 -0.37,-0.29 -0.59,-0.22 l -2.39,0.96 c -0.5,-0.38 -1.03,-0.7 -1.62,-0.94 l -0.36,-2.54 c -0.04,-0.24 -0.24,-0.41 -0.48,-0.41 h -3.84 c -0.24,0 -0.43,0.17 -0.47,0.41 l -0.36,2.54 c -0.59,0.24 -1.13,0.57 -1.62,0.94 l -2.39,-0.96 c -0.22,-0.08 -0.47,0 -0.59,0.22 l -1.91,3.32 c -0.12,0.21 -0.08,0.47 0.12,0.61 l 2.03,1.58 c -0.05,0.3 -0.09,0.63 -0.09,0.94 0,0.31 0.02,0.64 0.07,0.94 l -2.03,1.58 c -0.18,0.14 -0.23,0.41 -0.12,0.61 l 1.92,3.32 c 0.12,0.22 0.37,0.29 0.59,0.22 l 2.39,-0.96 c 0.5,0.38 1.03,0.7 1.62,0.94 l 0.36,2.54 c 0.05,0.24 0.24,0.41 0.48,0.41 h 3.84 c 0.24,0 0.44,-0.17 0.47,-0.41 l 0.36,-2.54 c 0.59,-0.24 1.13,-0.56 1.62,-0.94 l 2.39,0.96 c 0.22,0.08 0.47,0 0.59,-0.22 l 1.92,-3.32 c 0.12,-0.22 0.07,-0.47 -0.12,-0.61 z m -7.14,2.66 c -1.98,0 -3.6,-1.62 -3.6,-3.6 0,-1.98 1.62,-3.6 3.6,-3.6 1.98,0 3.6,1.62 3.6,3.6 0,1.98 -1.62,3.6 -3.6,3.6 z"
     inkscape:connector-curvature="0" />
  <path
     inkscape:export-ydpi="155.00003"
     inkscape:export-xdpi="155.00003"
     style="fill:#bb86fc;fill-opacity:1"
     inkscape:connector-curvature="0"
     d="m 123.39,107.94 c 0.04,-0.3 0.06,-0.61 0.06,-0.94 0,-0.32 -0.02,-0.64 -0.07,-0.94 l 2.03,-1.58 c 0.18,-0.14 0.23,-0.41 0.12,-0.61 l -1.92,-3.32 c -0.12,-0.22 -0.37,-0.29 -0.59,-0.22 l -2.39,0.96 c -0.5,-0.38 -1.03,-0.7 -1.62,-0.94 l -0.36,-2.54 c -0.04,-0.24 -0.24,-0.41 -0.48,-0.41 h -3.84 c -0.24,0 -0.43,0.17 -0.47,0.41 l -0.36,2.54 c -0.59,0.24 -1.13,0.57 -1.62,0.94 l -2.39,-0.96 c -0.22,-0.08 -0.47,0 -0.59,0.22 l -1.91,3.32 c -0.12,0.21 -0.08,0.47 0.12,0.61 l 2.03,1.58 c -0.05,0.3 -0.09,0.63 -0.09,0.94 0,0.31 0.02,0.64 0.07,0.94 l -2.03,1.58 c -0.18,0.14 -0.23,0.41 -0.12,0.61 l 1.92,3.32 c 0.12,0.22 0.37,0.29 0.59,0.22 l 2.39,-0.96 c 0.5,0.38 1.03,0.7 1.62,0.94 l 0.36,2.54 c 0.05,0.24 0.24,0.41 0.48,0.41 h 3.84 c 0.24,0 0.44,-0.17 0.47,-0.41 l 0.36,-2.54 c 0.59,-0.24 1.13,-0.56 1.62,-0.94 l 2.39,0.96 c 0.22,0.08 0.47,0 0.59,-0.22 l 1.92,-3.32 c 0.12,-0.22 0.07,-0.47 -0.12,-0.61 z m -7.14,2.66 c -1.98,0 -3.6,-1.62 -3.6,-3.6 0,-1.98 1.62,-3.6 3.6,-3.6 1.98,0 3.6,1.62 3.6,3.6 0,1.98 -1.62,3.6 -3.6,3.6 z"
     id="path1078" />
  <path
     inkscape:connector-curvature="0"
     d="m -25,158.5 -4,3.99 h 3 v 7.01 c 0,0 0,0.95312 1.000001,0.95312 1,0 1,-0.95312 1,-0.95312 v -7.01 h 3 z m 6.000001,18 -4,-3.99 h 3 v -7.01 c 0,0 0,-0.95312 1,-0.95312 1,0 1,0.95312 1,0.95312 v 7.01 h 3 z"
     id="path2-5" />
  <path
     inkscape:export-ydpi="208"
     inkscape:export-xdpi="208"
     style="fill:#bb86fc;fill-opacity:1"
     inkscape:connector-curvature="0"
     id="path1110"
     d="m 114.30004,124.55887 -4,3.99 h 3 v 7.01 c 0,0 0,0.95313 1,0.95313 1,0 1,-0.95313 1,-0.95313 v -7.01 h 3 z m 6,18 -4,-3.99 h 3 v -7.01 c 0,0 0,-0.95312 1,-0.95312 1,0 1,0.95312 1,0.95312 v 7.01 h 3 z" />
  <path
     id="path861"
     d="m 129.75396,326.08244 c 0.04,-0.3 0.06,-0.61 0.06,-0.94 0,-0.32 -0.02,-0.64 -0.07,-0.94 l 2.03,-1.58 c 0.18,-0.14 0.23,-0.41 0.12,-0.61 l -1.92,-3.32 c -0.12,-0.22 -0.37,-0.29 -0.59,-0.22 l -2.39,0.96 c -0.5,-0.38 -1.03,-0.7 -1.62,-0.94 l -0.36,-2.54 c -0.04,-0.24 -0.24,-0.41 -0.48,-0.41 h -3.84 c -0.24,0 -0.43,0.17 -0.47,0.41 l -0.36,2.54 c -0.59,0.24 -1.13,0.57 -1.62,0.94 l -2.39,-0.96 c -0.22,-0.08 -0.47,0 -0.59,0.22 l -1.91,3.32 c -0.12,0.21 -0.08,0.47 0.12,0.61 l 2.03,1.58 c -0.05,0.3 -0.09,0.63 -0.09,0.94 0,0.31 0.02,0.64 0.07,0.94 l -2.03,1.58 c -0.18,0.14 -0.23,0.41 -0.12,0.61 l 1.92,3.32 c 0.12,0.22 0.37,0.29 0.59,0.22 l 2.39,-0.96 c 0.5,0.38 1.03,0.7 1.62,0.94 l 0.36,2.54 c 0.05,0.24 0.24,0.41 0.48,0.41 h 3.84 c 0.24,0 0.44,-0.17 0.47,-0.41 l 0.36,-2.54 c 0.59,-0.24 1.13,-0.56 1.62,-0.94 l 2.39,0.96 c 0.22,0.08 0.47,0 0.59,-0.22 l 1.92,-3.32 c 0.12,-0.22 0.07,-0.47 -0.12,-0.61 z m -7.14,2.66 c -1.98,0 -3.6,-1.62 -3.6,-3.6 0,-1.98 1.62,-3.6 3.6,-3.6 1.98,0 3.6,1.62 3.6,3.6 0,1.98 -1.62,3.6 -3.6,3.6 z"
     inkscape:connector-curvature="0"
     style="fill:#e3d7f4;fill-opacity:1;filter:url(#filter1759)"
     inkscape:export-xdpi="128.50999"
     inkscape:export-ydpi="128.50999" />
  <path
     d="m 120.664,342.70132 -4,3.99 h 3 v 7.01 c 0,0 0,0.95312 1,0.95312 1,0 1,-0.95312 1,-0.95312 v -7.01 h 3 z m 6,18 -4,-3.99 h 3 v -7.01 c 0,0 0,-0.95312 1,-0.95312 1,0 1,0.95312 1,0.95312 v 7.01 h 3 z"
     id="path863"
     inkscape:connector-curvature="0"
     style="fill:#e3d7f4;fill-opacity:1;filter:url(#filter1763)"
     inkscape:export-xdpi="173.33328"
     inkscape:export-ydpi="173.33328" />
  <path
     inkscape:connector-curvature="0"
     inkscape:export-ydpi="86.687828"
     inkscape:export-xdpi="86.687828"
     id="path845"
     d="M 81.658699,203.37594 A 18.457626,18.457626 0 0 0 63.201669,221.83297 18.457626,18.457626 0 0 0 81.658699,240.29 18.457626,18.457626 0 0 0 100.11769,221.83297 18.457626,18.457626 0 0 0 81.658699,203.37594 Z m 7.12305,6.97266 h 2 v 3 h 3 v 2 h -3 v 2.99023 c 0,0 -1.99,0.01 -2,0 v -2.99023 h -3 c 0,0 0.01,-1.99 0,-2 h 3 z m -14.98438,3 h 10.79297 v 3.02539 h 3.11328 v 3.02343 h 3.56446 v 11.42188 c 0,1.37267 -1.12343,2.49609 -2.4961,2.49609 h -14.97461 c -1.37267,0 -2.49609,-1.12342 -2.49609,-2.49609 v -14.97461 c 0,-1.37267 1.12342,-2.49609 2.49609,-2.49609 z m 9.98438,11.23047 -3.74414,4.99218 -2.4961,-3.74414 -3.74414,4.99219 h 14.97461 z"
     style="opacity:1;fill:#e3d7f4;fill-opacity:1;fill-rule:evenodd;stroke:none;stroke-width:15.11351776;stroke-linecap:round;stroke-linejoin:round;stroke-miterlimit:4;stroke-dasharray:none;stroke-dashoffset:0;stroke-opacity:1;paint-order:normal;filter:url(#filter1727)" />
  <path
     inkscape:export-ydpi="86.687828"
     inkscape:export-xdpi="86.687828"
     id="path847"
     d="m 42.008489,202.88854 a 18.457626,18.457626 0 0 0 -18.45898,18.45703 18.457626,18.457626 0 0 0 18.45898,18.45703 18.457626,18.457626 0 0 0 18.45703,-18.45703 18.457626,18.457626 0 0 0 -18.45703,-18.45703 z m -9.51757,7.14453 h 2 v 3 h 3 v 2 h -3 v 3 h -2 v -3 h -3 v -2 h 3 z m 6,3 h 7 l 1.83007,2 h 3.16993 c 1.1,0 2,0.9 2,2 v 12 c 0,1.1 -0.9,2 -2,2 h -16 c -1.1,0 -2,-0.9 -2,-2 v -10 h 3 v -3 h 3 z m 4,5 c -2.76,0 -5,2.24 -5,5 0,2.76 2.24,5 5,5 2.76,0 5,-2.24 5,-5 0,-2.76 -2.24,-5 -5,-5 z m 0,1.79883 c 1.77,0 3.19921,1.43117 3.19921,3.20117 0,1.77 -1.42921,3.19922 -3.19921,3.19922 -1.77,0 -3.19922,-1.42922 -3.19922,-3.19922 0,-1.77 1.42922,-3.20117 3.19922,-3.20117 z"
     style="opacity:1;fill:#e3d7f4;fill-opacity:1;fill-rule:evenodd;stroke:none;stroke-width:15.11351776;stroke-linecap:round;stroke-linejoin:round;stroke-miterlimit:4;stroke-dasharray:none;stroke-dashoffset:0;stroke-opacity:1;paint-order:normal;filter:url(#filter1731)"
     inkscape:connector-curvature="0" />
  <path
     inkscape:connector-curvature="0"
     inkscape:export-ydpi="65.019997"
     inkscape:export-xdpi="65.019997"
     id="path849"
     d="m 127.25012,204.26986 a 18.457626,18.457626 0 0 0 -18.45703,18.45703 18.457626,18.457626 0 0 0 18.45703,18.45703 18.457626,18.457626 0 0 0 18.45703,-18.45703 18.457626,18.457626 0 0 0 -18.45703,-18.45703 z m 8.67382,7.82031 c 0.30132,0 0.60357,0.11528 0.83399,0.3457 l 1.58203,1.58399 c 0.46084,0.46084 0.46084,1.20517 0,1.66601 l -10.58789,10.58789 -3.24805,-3.25 10.58594,-10.58789 c 0.23042,-0.23042 0.53267,-0.3457 0.83398,-0.3457 z m -13.7832,13.00195 c 1.96153,0 3.54492,1.5834 3.54492,3.54492 0,2.61143 -2.11513,4.72657 -4.72656,4.72657 -1.78428,0 -3.63945,-0.92168 -4.72656,-2.36328 0.99258,0 2.36328,-0.81534 2.36328,-2.36329 0,-1.96152 1.5834,-3.54492 3.54492,-3.54492 z"
     style="opacity:1;fill:#e3d7f4;fill-opacity:1;fill-rule:evenodd;stroke:none;stroke-width:15.11351776;stroke-linecap:round;stroke-linejoin:round;stroke-miterlimit:4;stroke-dasharray:none;stroke-dashoffset:0;stroke-opacity:1;paint-order:normal;filter:url(#filter1735)" />
  <path
     inkscape:export-ydpi="267.54648"
     inkscape:export-xdpi="267.54648"
     style="color:#000000;font-style:normal;font-variant:normal;font-weight:normal;font-stretch:normal;font-size:medium;line-height:normal;font-family:sans-serif;font-variant-ligatures:normal;font-variant-position:normal;font-variant-caps:normal;font-variant-numeric:normal;font-variant-alternates:normal;font-feature-settings:normal;text-indent:0;text-align:start;text-decoration:none;text-decoration-line:none;text-decoration-style:solid;text-decoration-color:#000000;letter-spacing:normal;word-spacing:normal;text-transform:none;writing-mode:lr-tb;direction:ltr;text-orientation:mixed;dominant-baseline:auto;baseline-shift:baseline;text-anchor:start;white-space:normal;shape-padding:0;clip-rule:nonzero;display:inline;overflow:visible;visibility:visible;opacity:1;isolation:auto;mix-blend-mode:normal;color-interpolation:sRGB;color-interpolation-filters:linearRGB;solid-color:#000000;solid-opacity:1;vector-effect:none;fill:#e3d7f4;fill-opacity:1;fill-rule:nonzero;stroke:none;stroke-width:1;stroke-linecap:butt;stroke-linejoin:miter;stroke-miterlimit:4;stroke-dasharray:none;stroke-dashoffset:0;stroke-opacity:1;color-rendering:auto;image-rendering:auto;shape-rendering:auto;text-rendering:auto;enable-background:accumulate;filter:url(#filter1739)"
     d="m 136.3413,254.28155 c -0.37466,7.8e-4 -0.6608,0.0755 -0.92773,0.32031 -0.001,0.001 -0.003,8.6e-4 -0.004,0.002 -0.0233,0.0225 -9.67333,9.65688 -10.33398,10.3164 l -3.72461,-3.7246 c -0.14352,-0.14299 -0.28462,-0.28328 -0.49414,-0.38868 -0.20953,-0.10539 -0.44988,-0.14364 -0.71094,-0.14257 -0.39025,0.002 -0.72725,0.18204 -0.98828,0.44531 -0.26104,0.26327 -0.45317,0.63473 -0.45313,1.06445 -2.6e-4,0.42187 0.19532,0.83875 0.51953,1.13672 l 5.85157,5.85352 6.91992,-6.92579 5.50195,-5.5039 0.006,-0.006 c 0.23961,-0.25994 0.33631,-0.57138 0.33789,-0.94727 v -0.002 c 2.5e-4,-0.8216 -0.67644,-1.4983 -1.49805,-1.49805 z"
     id="path851"
     inkscape:connector-curvature="0" />
  <path
     inkscape:export-ydpi="120"
     inkscape:export-xdpi="120"
     style="fill:#e3d7f4;fill-opacity:1;filter:url(#filter1743)"
     d="m 100.58674,251.76476 c -5.510001,0 -10.000001,4.49 -10.000001,10 0,5.51 4.49,10 10.000001,10 5.51,0 9.99999,-4.49 9.99999,-10 0,-5.51 -4.48999,-10 -9.99999,-10 z m 0,2 c 4.41,0 7.99999,3.59 7.99999,8 0,4.41 -3.58999,8 -7.99999,8 -4.410001,0 -8.000001,-3.59 -8.000001,-8 0,-0.27562 0.0137,-0.54786 0.041,-0.8164 0.41056,-4.02814 3.82461,-7.1836 7.958981,-7.1836 z m 0,2.80079 c -1.000001,0 -1.000001,0.97265 -1.000001,0.97265 v 3.22656 h -3.22657 c 0,0 -0.97265,0 -0.97265,1 0,1 0.97265,1 0.97265,1 h 3.22657 v 3.22657 c 0,0 0,0.97265 1.000001,0.97265 1,0 1,-0.97265 1,-0.97265 v -3.22657 h 3.22656 c 0,0 0.9707,0 0.9707,-1 0,-1 -0.9707,-1 -0.9707,-1 h -3.22656 v -3.22656 c 0,0 0,-0.97265 -1,-0.97265 z"
     id="path853"
     inkscape:connector-curvature="0" />
  <path
     inkscape:export-ydpi="294.1123"
     inkscape:export-xdpi="294.1123"
     style="color:#000000;font-style:normal;font-variant:normal;font-weight:normal;font-stretch:normal;font-size:medium;line-height:normal;font-family:sans-serif;font-variant-ligatures:normal;font-variant-position:normal;font-variant-caps:normal;font-variant-numeric:normal;font-variant-alternates:normal;font-feature-settings:normal;text-indent:0;text-align:start;text-decoration:none;text-decoration-line:none;text-decoration-style:solid;text-decoration-color:#000000;letter-spacing:normal;word-spacing:normal;text-transform:none;writing-mode:lr-tb;direction:ltr;text-orientation:mixed;dominant-baseline:auto;baseline-shift:baseline;text-anchor:start;white-space:normal;shape-padding:0;clip-rule:nonzero;display:inline;overflow:visible;visibility:visible;opacity:1;isolation:auto;mix-blend-mode:normal;color-interpolation:sRGB;color-interpolation-filters:linearRGB;solid-color:#000000;solid-opacity:1;vector-effect:none;fill:#e3d7f4;fill-opacity:1;fill-rule:nonzero;stroke:none;stroke-width:1;stroke-linecap:butt;stroke-linejoin:miter;stroke-miterlimit:4;stroke-dasharray:none;stroke-dashoffset:0;stroke-opacity:1;color-rendering:auto;image-rendering:auto;shape-rendering:auto;text-rendering:auto;enable-background:accumulate;filter:url(#filter1747)"
     d="m 124.41744,274.00786 c -0.38675,0.11341 -0.63086,0.35938 -0.63086,0.35938 l -0.002,0.002 -6.35547,6.35547 6.35352,6.35352 c 0,0 0.24998,0.26104 0.64648,0.40429 0.3965,0.14326 1.03949,0.12067 1.51758,-0.35742 0.47809,-0.47809 0.50068,-1.11912 0.35742,-1.51562 -0.14325,-0.39651 -0.40429,-0.64844 -0.40429,-0.64844 l -2.72847,-2.73638 h 12.96484 c 0,0 0.35882,0.006 0.73438,-0.17578 0.37555,-0.18209 0.79687,-0.65234 0.79687,-1.32422 0,-0.67188 -0.42132,-1.14213 -0.79687,-1.32422 -0.37556,-0.18209 -0.73438,-0.17578 -0.73438,-0.17578 h -12.96484 l 2.72461,-2.73242 0.004,-0.004 c 0.004,-0.003 0.24905,-0.23545 0.36914,-0.61719 0.12098,-0.38457 0.0566,-0.9844 -0.40625,-1.44726 -0.46288,-0.46285 -1.05856,-0.52942 -1.44532,-0.41602 z"
     id="path855"
     inkscape:connector-curvature="0" />
  <path
     inkscape:export-ydpi="65.019997"
     inkscape:export-xdpi="65.019997"
     inkscape:connector-curvature="0"
     id="path857"
     d="m 43.988559,243.16772 a 18.457626,18.457626 0 0 0 -18.45703,18.45899 18.457626,18.457626 0 0 0 18.45703,18.45703 18.457626,18.457626 0 0 0 18.45703,-18.45703 18.457626,18.457626 0 0 0 -18.45703,-18.45899 z m 6.99414,6.58789 h 2.48047 v 3.72071 h 3.7207 v 2.48046 h -3.7207 v 3.70899 c 0,0 -2.46807,0.0124 -2.48047,0 v -3.70899 h -3.7207 c 0,0 0.0124,-2.46806 0,-2.48046 h 3.7207 z m -14.88086,3.72071 h 8.67969 v 2.48046 h -8.67969 v 15.1543 h 14.88086 v -8.95312 h 2.48047 v 8.68164 c 0,1.36414 -1.11633,2.47851 -2.48047,2.47851 h -14.88086 c -1.36415,0 -2.48047,-1.11437 -2.48047,-2.47851 v -14.88282 c 0,-1.36414 1.11632,-2.48046 2.48047,-2.48046 z m 2.48047,4.96093 h 9.91992 v 2.48047 h -9.91992 z m 0,3.72071 h 6.19922 3.7207 v 2.48047 h -9.91992 z m 0,3.7207 h 9.91992 v 2.48047 h -9.91992 z"
     style="opacity:1;fill:#e3d7f4;fill-opacity:1;fill-rule:evenodd;stroke:none;stroke-width:15.11351776;stroke-linecap:round;stroke-linejoin:round;stroke-miterlimit:4;stroke-dasharray:none;stroke-dashoffset:0;stroke-opacity:1;paint-order:normal;filter:url(#filter1751)" />
  <path
     inkscape:export-ydpi="134.75974"
     inkscape:export-xdpi="134.75974"
     style="fill:#e3d7f4;fill-opacity:1;filter:url(#filter1755)"
     sodipodi:nodetypes="cccsssscccczccsssss"
     id="path859"
     d="m 128.11286,303.63719 h -0.79 l -0.28,-0.27 c 0.98,-1.14 1.57,-2.62 1.57,-4.23 0,-3.59 -2.91,-6.5 -6.5,-6.5 -3.59,0 -6.5,2.91 -6.5,6.5 0,3.59 2.91,6.5 6.5,6.5 1.61,0 3.09,-0.59 4.23,-1.57 l 0.27,0.28 v 0.79 l 5,4.99 c 0,0 0.71816,0.7292 1.46316,-0.0158 0.745,-0.745 0.0268,-1.4742 0.0268,-1.4742 z m -6,0 c -2.49,0 -4.5,-2.01 -4.5,-4.5 0,-2.49 2.01,-4.5 4.5,-4.5 2.49,0 4.5,2.01 4.5,4.5 0,2.49 -2.01,4.5 -4.5,4.5 z"
     inkscape:connector-curvature="0" />
  <path
     style="opacity:1;fill:#bb86fc;fill-opacity:1;fill-rule:evenodd;stroke:none;stroke-width:15.11351776;stroke-linecap:round;stroke-linejoin:round;stroke-miterlimit:4;stroke-dasharray:none;stroke-dashoffset:0;stroke-opacity:1;paint-order:normal"
     d="M 55.777141,25.378839 A 18.457626,18.457626 0 0 0 37.32011,43.837819 18.457626,18.457626 0 0 0 55.777141,62.294849 18.457626,18.457626 0 0 0 74.234173,43.837819 18.457626,18.457626 0 0 0 55.777141,25.378839 Z m 6.994141,6.58789 h 2.480469 v 3.7207 h 3.720703 v 2.48047 h -3.720703 v 3.70898 c 0,0 -2.468068,0.0124 -2.480469,0 v -3.70898 h -3.720703 c 0,0 0.0124,-2.46807 0,-2.48047 h 3.720703 z m -14.880859,3.7207 h 8.679687 v 2.48047 h -8.679687 v 15.15429 h 14.880859 v -8.95312 h 2.480469 v 8.68164 c 0,1.36414 -1.116324,2.47852 -2.480469,2.47852 H 47.890423 c -1.364145,0 -2.480469,-1.11438 -2.480469,-2.47852 v -14.88281 c 0,-1.36415 1.116324,-2.48047 2.480469,-2.48047 z m 2.480468,4.96094 h 9.919922 v 2.48047 h -9.919922 z m 0,3.7207 h 6.199219 3.720703 v 2.48047 h -9.919922 z m 0,3.7207 h 9.919922 v 2.48047 h -9.919922 z"
     id="circle1039"
     inkscape:connector-curvature="0"
     inkscape:export-xdpi="78.014923"
     inkscape:export-ydpi="78.014923" />
  <path
     inkscape:connector-curvature="0"
     inkscape:export-ydpi="104.02"
     inkscape:export-xdpi="104.02"
     id="path877"
     d="m -254.92413,14.931982 a 18.457626,18.457626 0 0 0 -18.45703,18.45703 18.457626,18.457626 0 0 0 18.45703,18.457031 18.457626,18.457626 0 0 0 18.45898,-18.457031 18.457626,18.457626 0 0 0 -18.45898,-18.45703 z m 7.12305,6.972656 h 2 v 3 h 3 v 1.999999 h -3 v 2.990236 c 0,0 -1.99,0.01 -2,0 v -2.990236 h -3 c 0,0 0.01,-1.989999 0,-1.999999 h 3 z m -14.98438,3 h 10.79297 v 3.02539 h 3.11328 v 3.023437 h 3.56446 V 42.37534 c 0,1.37267 -1.12343,2.496094 -2.4961,2.496094 h -14.97461 c -1.37267,0 -2.49609,-1.123424 -2.49609,-2.496094 V 27.400731 c 0,-1.372669 1.12342,-2.496093 2.49609,-2.496093 z m 9.98438,11.230468 -3.74414,4.992187 -2.4961,-3.74414 -3.74414,4.992187 h 14.97461 z"
     style="opacity:1;fill:#6200ee;fill-opacity:1;fill-rule:evenodd;stroke:none;stroke-width:15.11351776;stroke-linecap:round;stroke-linejoin:round;stroke-miterlimit:4;stroke-dasharray:none;stroke-dashoffset:0;stroke-opacity:1;paint-order:normal"
     inkscape:export-filename="D:\workspace2018\ase-abschlussprojekte-ws1920-digitales-inventar\DigitalesInventar\app\src\main\res\drawable\add_pic_from_gallery40px.png" />
  <path
     inkscape:connector-curvature="0"
     inkscape:export-ydpi="65.015877"
     inkscape:export-xdpi="65.015877"
     id="path879"
     d="m -209.33271,15.825897 a 18.457626,18.457626 0 0 0 -18.45703,18.457031 18.457626,18.457626 0 0 0 18.45703,18.457031 18.457626,18.457626 0 0 0 18.45703,-18.457031 18.457626,18.457626 0 0 0 -18.45703,-18.457031 z m 8.67382,7.820312 c 0.30132,0 0.60357,0.115284 0.83399,0.345703 l 1.58203,1.583985 c 0.46084,0.460841 0.46084,1.205176 0,1.666015 l -10.58789,10.587891 -3.24805,-3.25 10.58594,-10.587891 c 0.23042,-0.23042 0.53267,-0.345703 0.83398,-0.345703 z m -13.7832,13.001953 c 1.96153,0 3.54492,1.583397 3.54492,3.544922 0,2.611427 -2.11513,4.726563 -4.72656,4.726563 -1.78428,0 -3.63945,-0.921678 -4.72656,-2.363281 0.99258,0 2.36328,-0.815332 2.36328,-2.363282 0,-1.961525 1.5834,-3.544922 3.54492,-3.544922 z"
     style="opacity:1;fill:#6200ee;fill-opacity:1;fill-rule:evenodd;stroke:none;stroke-width:15.11351776;stroke-linecap:round;stroke-linejoin:round;stroke-miterlimit:4;stroke-dasharray:none;stroke-dashoffset:0;stroke-opacity:1;paint-order:normal"
     inkscape:export-filename="D:\workspace2018\ase-abschlussprojekte-ws1920-digitales-inventar\DigitalesInventar\app\src\main\res\drawable\brush30px.png" />
  <path
     inkscape:export-ydpi="120"
     inkscape:export-xdpi="120"
     style="fill:#6200ee;fill-opacity:1"
     d="m -235.9961,63.320804 c -5.51,0 -10,4.49 -10,10 0,5.51 4.49,10 10,10 5.51001,0 10,-4.49 10,-10 0,-5.51 -4.48999,-10 -10,-10 z m 0,2 c 4.41,0 8,3.59 8,8 0,4.41 -3.58999,8 -8,8 -4.40999,0 -8,-3.59 -8,-8 0,-0.275625 0.0137,-0.547863 0.041,-0.816406 0.41056,-4.028137 3.82461,-7.183594 7.95899,-7.183594 z m 0,2.800782 c -1,0 -1,0.972656 -1,0.972656 v 3.226562 h -3.22656 c 0,0 -0.97265,0 -0.97265,1 0,1 0.97265,1 0.97265,1 h 3.22656 v 3.226563 c 0,0 0,0.972656 1,0.972656 1,0 1,-0.972656 1,-0.972656 v -3.226563 h 3.22657 c 0,0 0.9707,0 0.9707,-1 0,-1 -0.9707,-1 -0.9707,-1 h -3.22657 v -3.226562 c 0,0 0,-0.972656 -1,-0.972656 z"
     id="path883"
     inkscape:connector-curvature="0"
     inkscape:export-filename="D:\workspace2018\ase-abschlussprojekte-ws1920-digitales-inventar\DigitalesInventar\app\src\main\res\drawable\plus30px.png" />
  <path
     inkscape:export-ydpi="134.75989"
     inkscape:export-xdpi="134.75989"
     style="fill:#6200ee;fill-opacity:1"
     sodipodi:nodetypes="cccsssscccczccsssss"
     id="path887"
     d="m -208.46997,115.19324 h -0.79 l -0.28,-0.27 c 0.98,-1.14 1.57,-2.62 1.57,-4.23 0,-3.59 -2.91,-6.5 -6.5,-6.5 -3.59,0 -6.5,2.91 -6.5,6.5 0,3.59 2.91,6.5 6.5,6.5 1.61,0 3.09,-0.59 4.23,-1.57 l 0.27,0.28 v 0.79 l 5,4.99 c 0,0 0.71816,0.7292 1.46316,-0.0158 0.745,-0.745 0.0268,-1.4742 0.0268,-1.4742 z m -6,0 c -2.49,0 -4.5,-2.01 -4.5,-4.5 0,-2.49 2.01,-4.5 4.5,-4.5 2.49,0 4.5,2.01 4.5,4.5 0,2.49 -2.01,4.5 -4.5,4.5 z"
     inkscape:connector-curvature="0"
     inkscape:export-filename="D:\workspace2018\ase-abschlussprojekte-ws1920-digitales-inventar\DigitalesInventar\app\src\main\res\drawable\search30px.png" />
  <path
     id="path889"
     d="m -206.82887,137.63849 c 0.04,-0.3 0.06,-0.61 0.06,-0.94 0,-0.32 -0.02,-0.64 -0.07,-0.94 l 2.03,-1.58 c 0.18,-0.14 0.23,-0.41 0.12,-0.61 l -1.92,-3.32 c -0.12,-0.22 -0.37,-0.29 -0.59,-0.22 l -2.39,0.96 c -0.5,-0.38 -1.03,-0.7 -1.62,-0.94 l -0.36,-2.54 c -0.04,-0.24 -0.24,-0.41 -0.48,-0.41 h -3.84 c -0.24,0 -0.43,0.17 -0.47,0.41 l -0.36,2.54 c -0.59,0.24 -1.13,0.57 -1.62,0.94 l -2.39,-0.96 c -0.22,-0.08 -0.47,0 -0.59,0.22 l -1.91,3.32 c -0.12,0.21 -0.08,0.47 0.12,0.61 l 2.03,1.58 c -0.05,0.3 -0.09,0.63 -0.09,0.94 0,0.31 0.02,0.64 0.07,0.94 l -2.03,1.58 c -0.18,0.14 -0.23,0.41 -0.12,0.61 l 1.92,3.32 c 0.12,0.22 0.37,0.29 0.59,0.22 l 2.39,-0.96 c 0.5,0.38 1.03,0.7 1.62,0.94 l 0.36,2.54 c 0.05,0.24 0.24,0.41 0.48,0.41 h 3.84 c 0.24,0 0.44,-0.17 0.47,-0.41 l 0.36,-2.54 c 0.59,-0.24 1.13,-0.56 1.62,-0.94 l 2.39,0.96 c 0.22,0.08 0.47,0 0.59,-0.22 l 1.92,-3.32 c 0.12,-0.22 0.07,-0.47 -0.12,-0.61 z m -7.14,2.66 c -1.98,0 -3.6,-1.62 -3.6,-3.6 0,-1.98 1.62,-3.6 3.6,-3.6 1.98,0 3.6,1.62 3.6,3.6 0,1.98 -1.62,3.6 -3.6,3.6 z"
     inkscape:connector-curvature="0"
     style="fill:#6200ee;fill-opacity:1"
     inkscape:export-xdpi="129.16666"
     inkscape:export-ydpi="129.16666"
     inkscape:export-filename="D:\workspace2018\ase-abschlussprojekte-ws1920-digitales-inventar\DigitalesInventar\app\src\main\res\drawable\settings30px.png" />
  <path
     d="m -215.91883,154.25736 -4,3.99 h 3 v 7.01 c 0,0 0,0.95313 1,0.95313 1,0 1,-0.95313 1,-0.95313 v -7.01 h 3 z m 6,18 -4,-3.99 h 3 v -7.01 c 0,0 0,-0.95312 1,-0.95312 1,0 1,0.95312 1,0.95312 v 7.01 h 3 z"
     id="path891"
     inkscape:connector-curvature="0"
     style="fill:#6200ee;fill-opacity:1"
     inkscape:export-xdpi="168.88884"
     inkscape:export-ydpi="168.88884"
     inkscape:export-filename="D:\workspace2018\ase-abschlussprojekte-ws1920-digitales-inventar\DigitalesInventar\app\src\main\res\drawable\swap30px.png" />
  <path
     inkscape:export-ydpi="65.019997"
     inkscape:export-xdpi="65.019997"
     inkscape:connector-curvature="0"
     id="path893"
     d="m -274.44173,55.077324 a 18.457626,18.457626 0 0 0 -18.45703,18.45898 18.457626,18.457626 0 0 0 18.45703,18.45703 18.457626,18.457626 0 0 0 18.45703,-18.45703 18.457626,18.457626 0 0 0 -18.45703,-18.45898 z m 6.99414,6.58789 h 2.48047 v 3.7207 h 3.7207 v 2.48047 h -3.7207 v 3.70898 c 0,0 -2.46807,0.0124 -2.48047,0 v -3.70898 h -3.7207 c 0,0 0.0124,-2.46807 0,-2.48047 h 3.7207 z m -14.88086,3.7207 h 8.67969 v 2.48047 h -8.67969 v 15.15429 h 14.88086 v -8.95312 h 2.48047 v 8.68164 c 0,1.36414 -1.11632,2.47852 -2.48047,2.47852 h -14.88086 c -1.36414,0 -2.48047,-1.11438 -2.48047,-2.47852 v -14.88281 c 0,-1.36415 1.11633,-2.48047 2.48047,-2.48047 z m 2.48047,4.96094 h 9.91992 v 2.48047 h -9.91992 z m 0,3.7207 h 6.19922 3.7207 v 2.48047 h -9.91992 z m 0,3.7207 h 9.91992 v 2.48047 h -9.91992 z"
     style="opacity:1;fill:#6200ee;fill-opacity:1;fill-rule:evenodd;stroke:none;stroke-width:15.11351776;stroke-linecap:round;stroke-linejoin:round;stroke-miterlimit:4;stroke-dasharray:none;stroke-dashoffset:0;stroke-opacity:1;paint-order:normal"
     inkscape:export-filename="D:\workspace2018\ase-abschlussprojekte-ws1920-digitales-inventar\DigitalesInventar\app\src\main\res\drawable\edit30px.png" />
  <path
     inkscape:export-ydpi="104.0254"
     inkscape:export-xdpi="104.0254"
     id="path915"
     d="m -297.75632,11.262599 a 18.457626,18.457626 0 0 0 -18.45898,18.457031 18.457626,18.457626 0 0 0 18.45898,18.457031 18.457626,18.457626 0 0 0 18.45703,-18.457031 18.457626,18.457626 0 0 0 -18.45703,-18.457031 z m -9.51758,7.144531 h 2 v 3 h 3 v 2 h -3 v 3 h -2 v -3 h -3 v -2 h 3 z m 6,3 h 7 l 1.83008,2 h 3.16992 c 1.1,0 2,0.9 2,2 v 12 c 0,1.1 -0.9,2 -2,2 h -16 c -1.1,0 -2,-0.9 -2,-2 v -10 h 3 v -3 h 3 z m 4,5 c -2.76,0 -5,2.24 -5,5 0,2.76 2.24,5 5,5 2.76,0 5,-2.24 5,-5 0,-2.76 -2.24,-5 -5,-5 z m 0,1.798828 c 1.77,0 3.19922,1.431172 3.19922,3.201172 0,1.77 -1.42922,3.199218 -3.19922,3.199218 -1.77,0 -3.19922,-1.429218 -3.19922,-3.199218 0,-1.77 1.42922,-3.201172 3.19922,-3.201172 z"
     style="opacity:1;fill:#6200ee;fill-opacity:1;fill-rule:evenodd;stroke:none;stroke-width:15.11351776;stroke-linecap:round;stroke-linejoin:round;stroke-miterlimit:4;stroke-dasharray:none;stroke-dashoffset:0;stroke-opacity:1;paint-order:normal"
     inkscape:connector-curvature="0"
     inkscape:export-filename="D:\workspace2018\ase-abschlussprojekte-ws1920-digitales-inventar\DigitalesInventar\app\src\main\res\drawable\add_pic_from_cam40px.png" />
  <circle
     style="opacity:1;fill:#bb86fc;fill-opacity:1;fill-rule:evenodd;stroke:none;stroke-width:15.11351776;stroke-linecap:round;stroke-linejoin:round;stroke-miterlimit:4;stroke-dasharray:none;stroke-dashoffset:0;stroke-opacity:1;paint-order:normal"
     id="circle908"
     cx="-157.29471"
     cy="116.08568"
     r="18.457626" />
  <circle
     r="18.457626"
     cy="156.03722"
     cx="-157.29471"
     id="circle910"
     style="opacity:1;fill:#bb86fc;fill-opacity:1;fill-rule:evenodd;stroke:none;stroke-width:15.11351776;stroke-linecap:round;stroke-linejoin:round;stroke-miterlimit:4;stroke-dasharray:none;stroke-dashoffset:0;stroke-opacity:1;paint-order:normal" />
  <path
     sodipodi:type="inkscape:offset"
     inkscape:radius="-0.23284842"
     inkscape:original="M -200.24219 65.837891 C -200.61685 65.838673 -200.90299 65.9134 -201.16992 66.158203 C -201.17092 66.159303 -201.17283 66.159022 -201.17383 66.160156 C -201.19713 66.182696 -210.84716 75.817034 -211.50781 76.476562 L -215.23242 72.751953 C -215.37594 72.608968 -215.51704 72.468673 -215.72656 72.363281 C -215.93609 72.257888 -216.17644 72.21964 -216.4375 72.220703 C -216.82775 72.222303 -217.16475 72.402746 -217.42578 72.666016 C -217.68682 72.929286 -217.87895 73.300753 -217.87891 73.730469 C -217.87917 74.152337 -217.68359 74.569214 -217.35938 74.867188 L -211.50781 80.720703 L -204.58789 73.794922 L -199.08594 68.291016 L -199.08008 68.285156 C -198.84047 68.025223 -198.74377 67.713778 -198.74219 67.337891 L -198.74219 67.335938 C -198.74194 66.514331 -199.41862 65.837638 -200.24023 65.837891 L -200.24219 65.837891 z "
     style="color:#000000;font-style:normal;font-variant:normal;font-weight:normal;font-stretch:normal;font-size:medium;line-height:normal;font-family:sans-serif;font-variant-ligatures:normal;font-variant-position:normal;font-variant-caps:normal;font-variant-numeric:normal;font-variant-alternates:normal;font-feature-settings:normal;text-indent:0;text-align:start;text-decoration:none;text-decoration-line:none;text-decoration-style:solid;text-decoration-color:#000000;letter-spacing:normal;word-spacing:normal;text-transform:none;writing-mode:lr-tb;direction:ltr;text-orientation:mixed;dominant-baseline:auto;baseline-shift:baseline;text-anchor:start;white-space:normal;shape-padding:0;clip-rule:nonzero;display:inline;overflow:visible;visibility:visible;opacity:1;isolation:auto;mix-blend-mode:normal;color-interpolation:sRGB;color-interpolation-filters:linearRGB;solid-color:#000000;solid-opacity:1;vector-effect:none;fill:#6200ee;fill-opacity:1;fill-rule:nonzero;stroke:none;stroke-width:1;stroke-linecap:butt;stroke-linejoin:miter;stroke-miterlimit:4;stroke-dasharray:none;stroke-dashoffset:0;stroke-opacity:1;color-rendering:auto;image-rendering:auto;shape-rendering:auto;text-rendering:auto;enable-background:accumulate"
     id="path881"
     d="m -200.24219,66.070312 c -0.34394,7.18e-4 -0.54629,0.05504 -0.76953,0.259766 -0.0251,0.02435 -9.67138,9.651023 -10.33203,10.310547 a 0.23287171,0.23287171 0 0 1 -0.32813,0 l -3.7246,-3.724609 c -0.14342,-0.142878 -0.26265,-0.256777 -0.43555,-0.34375 -0.16588,-0.08343 -0.36773,-0.120109 -0.60547,-0.119141 -0.31903,0.0013 -0.59433,0.147063 -0.82227,0.376953 -0.22415,0.226071 -0.38675,0.540093 -0.38671,0.900391 -2.2e-4,0.349807 0.16641,0.708517 0.44531,0.964843 a 0.23287171,0.23287171 0 0 1 0.006,0.0078 l 5.6875,5.689453 6.75586,-6.761719 5.5,-5.503906 c 0.19751,-0.214271 0.2756,-0.453718 0.27734,-0.789062 v -0.002 c 2.1e-4,-0.693718 -0.57191,-1.265839 -1.26562,-1.265626 z M -201,66.314453 c -0.001,0.0013 -0.009,0.01042 -0.0117,0.01367 l 0.0137,-0.01367 c 0,4e-6 -0.002,-3.2e-5 -0.002,0 z"
     inkscape:export-filename="D:\workspace2018\ase-abschlussprojekte-ws1920-digitales-inventar\DigitalesInventar\app\src\main\res\drawable\tick64x50px.png"
     inkscape:export-xdpi="334.19247"
     inkscape:export-ydpi="334.19247"
     transform="matrix(1.4014728,0,0,1.4014728,134.69164,14.787068)" />
  <path
     sodipodi:type="inkscape:offset"
     inkscape:radius="-0.31827101"
     inkscape:original="M -212.16602 85.564453 C -212.55277 85.677863 -212.79687 85.923828 -212.79688 85.923828 L -212.79883 85.925781 L -219.1543 92.28125 L -212.80078 98.634766 C -212.80078 98.634766 -212.5508 98.895812 -212.1543 99.039062 C -211.7578 99.182322 -211.11481 99.159731 -210.63672 98.681641 C -210.15863 98.203551 -210.13604 97.562516 -210.2793 97.166016 C -210.42255 96.769507 -210.68359 96.517578 -210.68359 96.517578 L -213.41211 93.78125 L -200.44727 93.78125 C -200.44727 93.78125 -200.08845 93.787249 -199.71289 93.605469 C -199.33734 93.423379 -198.91602 92.95313 -198.91602 92.28125 C -198.91602 91.60937 -199.33734 91.139121 -199.71289 90.957031 C -200.08845 90.774941 -200.44727 90.78125 -200.44727 90.78125 L -213.41211 90.78125 L -210.6875 88.048828 L -210.68359 88.044922 C -210.67959 88.041922 -210.43454 87.809474 -210.31445 87.427734 C -210.19347 87.043164 -210.25785 86.443329 -210.7207 85.980469 C -211.18358 85.517619 -211.77926 85.451053 -212.16602 85.564453 z "
     style="color:#000000;font-style:normal;font-variant:normal;font-weight:normal;font-stretch:normal;font-size:medium;line-height:normal;font-family:sans-serif;font-variant-ligatures:normal;font-variant-position:normal;font-variant-caps:normal;font-variant-numeric:normal;font-variant-alternates:normal;font-feature-settings:normal;text-indent:0;text-align:start;text-decoration:none;text-decoration-line:none;text-decoration-style:solid;text-decoration-color:#000000;letter-spacing:normal;word-spacing:normal;text-transform:none;writing-mode:lr-tb;direction:ltr;text-orientation:mixed;dominant-baseline:auto;baseline-shift:baseline;text-anchor:start;white-space:normal;shape-padding:0;clip-rule:nonzero;display:inline;overflow:visible;visibility:visible;opacity:1;isolation:auto;mix-blend-mode:normal;color-interpolation:sRGB;color-interpolation-filters:linearRGB;solid-color:#000000;solid-opacity:1;vector-effect:none;fill:#6200ee;fill-opacity:1;fill-rule:nonzero;stroke:none;stroke-width:1;stroke-linecap:butt;stroke-linejoin:miter;stroke-miterlimit:4;stroke-dasharray:none;stroke-dashoffset:0;stroke-opacity:1;color-rendering:auto;image-rendering:auto;shape-rendering:auto;text-rendering:auto;enable-background:accumulate"
     id="path885"
     d="m -211.55078,85.867188 c -0.20181,-0.04667 -0.39048,-0.0376 -0.52539,0.002 -0.30221,0.08862 -0.49414,0.279297 -0.49414,0.279297 a 0.31830284,0.31830284 0 0 1 -0.002,0 l -0.002,0.002 -6.13086,6.130859 6.12891,6.128906 a 0.31830284,0.31830284 0 0 1 0.006,0.0039 c 0,0 0.20294,0.210383 0.52343,0.326172 0.28303,0.102259 0.80481,0.09754 1.18555,-0.283203 0.38105,-0.381049 0.38558,-0.900258 0.28321,-1.183593 -0.11591,-0.320819 -0.32618,-0.527344 -0.32618,-0.527344 a 0.31830284,0.31830284 0 0 1 -0.004,-0.0039 l -2.72852,-2.736329 a 0.31830284,0.31830284 0 0 1 0.22461,-0.542968 h 12.96484 a 0.31830284,0.31830284 0 0 1 0.006,0 c 0,0 0.28832,0.0014 0.58985,-0.144532 0.26607,-0.129009 0.61719,-0.498282 0.61718,-1.037109 0,-0.538827 -0.35111,-0.9081 -0.61718,-1.037109 -0.30136,-0.146112 -0.58985,-0.144532 -0.58985,-0.144532 a 0.31830284,0.31830284 0 0 1 -0.006,0 h -12.96484 a 0.31830284,0.31830284 0 0 1 -0.22461,-0.542968 l 2.72461,-2.732422 0.004,-0.0039 a 0.31830284,0.31830284 0 0 1 0.008,-0.0078 c -2.7e-4,2.56e-4 5e-5,-0.002 0.002,-0.0039 0.004,-0.0038 0.0122,-0.01118 0.0215,-0.02148 0.0186,-0.0206 0.0454,-0.05308 0.0762,-0.0957 0.0616,-0.08524 0.13659,-0.209978 0.18359,-0.359375 0.0829,-0.263367 0.0479,-0.750876 -0.32812,-1.126953 -0.18857,-0.188551 -0.40366,-0.291224 -0.60547,-0.33789 z"
     inkscape:export-filename="D:\workspace2018\ase-abschlussprojekte-ws1920-digitales-inventar\DigitalesInventar\app\src\main\res\drawable\back74x50.png"
     inkscape:export-xdpi="369.78635"
     inkscape:export-ydpi="369.78635"
     transform="matrix(1.3147473,0,0,1.3147473,117.64932,35.42095)" />
  <path
     style="opacity:1;fill:#3e3748;fill-opacity:1;fill-rule:evenodd;stroke:none;stroke-width:15.11351776;stroke-linecap:round;stroke-linejoin:round;stroke-miterlimit:4;stroke-dasharray:none;stroke-dashoffset:0;stroke-opacity:1;paint-order:normal"
     d="m -132.92011,-88.871075 a 18.457626,18.457626 0 0 0 -18.45703,18.457033 18.457626,18.457626 0 0 0 18.45703,18.45703 18.457626,18.457626 0 0 0 18.45703,-18.45703 18.457626,18.457626 0 0 0 -18.45703,-18.457033 z m 11.35351,9.753903 h 0.002 c 0.97221,-3e-4 1.77373,0.80121 1.77343,1.77344 v 0.004 c -0.002,0.46997 -0.11186,0.80517 -0.38867,1.10546 l -7.70703,7.7129 -9.46875,9.47656 -7.9707,-7.97266 a 0.32636337,0.32636337 0 0 0 -0.008,-0.0117 c -0.39088,-0.35923 -0.62531,-0.86131 -0.625,-1.35156 -6e-5,-0.50495 0.22687,-0.94684 0.54101,-1.26367 0.31945,-0.32219 0.70719,-0.52551 1.1543,-0.52735 0.33318,-0.001 0.61518,0.051 0.84765,0.16797 0.24232,0.12189 0.40838,0.28023 0.60938,0.48047 l 5.2207,5.22071 a 0.32636337,0.32636337 0 0 0 0.46094,0 c 0.92588,-0.92431 14.44331,-14.41704 14.47852,-14.45118 0.31286,-0.28692 0.59805,-0.36227 1.08007,-0.36328 z"
     id="circle913"
     inkscape:export-filename="D:\workspace2018\ase-abschlussprojekte-ws1920-digitales-inventar\DigitalesInventar\app\src\main\res\drawable\tick64x50px.png"
     inkscape:export-xdpi="86.687798"
     inkscape:export-ydpi="86.687798"
     inkscape:connector-curvature="0" />
  <path
     style="opacity:1;fill:#3e3748;fill-opacity:1;fill-rule:evenodd;stroke:none;stroke-width:15.11351776;stroke-linecap:round;stroke-linejoin:round;stroke-miterlimit:4;stroke-dasharray:none;stroke-dashoffset:0;stroke-opacity:1;paint-order:normal"
     d="m -239.63301,-107.98403 a 18.457626,18.457626 0 0 0 -18.45703,18.457028 18.457626,18.457626 0 0 0 18.45703,18.45703 18.457626,18.457626 0 0 0 18.45703,-18.45703 18.457626,18.457626 0 0 0 -18.45703,-18.457028 z m -3.57031,10.693358 c 0.11735,-0.002 0.24624,0.0103 0.3789,0.041 0.26533,0.0614 0.547,0.19742 0.79492,0.44532 0.49444,0.49444 0.54057,1.1342 0.43164,1.48046 -0.0618,0.19642 -0.15922,0.36059 -0.24023,0.47266 -0.0405,0.056 -0.0752,0.0979 -0.0996,0.125 -0.0122,0.0136 -0.0243,0.0242 -0.0293,0.0293 -0.002,0.003 -0.002,0.006 -0.002,0.006 a 0.4184878,0.4184878 0 0 0 -0.0117,0.01 l -0.004,0.004 -3.58204,3.59375 a 0.4184878,0.4184878 0 0 0 0.29493,0.71289 h 17.04492 a 0.4184878,0.4184878 0 0 0 0.008,0 c 0,0 0.37918,-6.9e-4 0.77539,0.19141 0.34982,0.16961 0.8125,0.65486 0.8125,1.36328 2e-5,0.70842 -0.46268,1.19366 -0.8125,1.36328 -0.39643,0.19188 -0.77539,0.18945 -0.77539,0.18945 a 0.4184878,0.4184878 0 0 0 -0.008,0 h -17.04492 a 0.4184878,0.4184878 0 0 0 -0.29493,0.71484 l 3.58594,3.59766 a 0.4184878,0.4184878 0 0 0 0.006,0.004 c 0,0 0.2773,0.27156 0.42969,0.69336 0.13459,0.37251 0.12794,1.05565 -0.37305,1.55664 -0.50058,0.50058 -1.18648,0.50749 -1.55859,0.37304 -0.42137,-0.15223 -0.6875,-0.42968 -0.6875,-0.42968 a 0.4184878,0.4184878 0 0 0 -0.008,-0.006 l -8.0586,-8.05664 8.06055,-8.06055 0.002,-0.004 a 0.4184878,0.4184878 0 0 0 0.004,0 c 0,0 0.25111,-0.25067 0.64844,-0.36718 0.0887,-0.026 0.19514,-0.0412 0.3125,-0.043 z"
     id="circle915"
     inkscape:export-filename="D:\workspace2018\ase-abschlussprojekte-ws1920-digitales-inventar\DigitalesInventar\app\src\main\res\drawable\back74x50.png"
     inkscape:export-xdpi="104.02542"
     inkscape:export-ydpi="104.02542"
     inkscape:connector-curvature="0" />
</svg>
