<?xml version="1.0" encoding="UTF-8" standalone="no"?>
<!-- Created with Inkscape (http://www.inkscape.org/) -->

<svg
   xmlns:dc="http://purl.org/dc/elements/1.1/"
   xmlns:cc="http://creativecommons.org/ns#"
   xmlns:rdf="http://www.w3.org/1999/02/22-rdf-syntax-ns#"
   xmlns:svg="http://www.w3.org/2000/svg"
   xmlns="http://www.w3.org/2000/svg"
   xmlns:sodipodi="http://sodipodi.sourceforge.net/DTD/sodipodi-0.dtd"
   xmlns:inkscape="http://www.inkscape.org/namespaces/inkscape"
   width="210mm"
   height="297mm"
   viewBox="0 0 210 297"
   version="1.1"
   id="svg8"
   inkscape:version="0.92.3 (2405546, 2018-03-11)"
   sodipodi:docname="plusIcon.svg">
  <defs
     id="defs2" />
  <sodipodi:namedview
     id="base"
     pagecolor="#ffffff"
     bordercolor="#666666"
     borderopacity="1.0"
     inkscape:pageopacity="0.0"
     inkscape:pageshadow="2"
     inkscape:zoom="0.35"
     inkscape:cx="-448.57143"
     inkscape:cy="560"
     inkscape:document-units="mm"
     inkscape:current-layer="layer1"
     showgrid="false"
     inkscape:window-width="1920"
     inkscape:window-height="1057"
     inkscape:window-x="-8"
     inkscape:window-y="-8"
     inkscape:window-maximized="1" />
  <metadata
     id="metadata5">
    <rdf:RDF>
      <cc:Work
         rdf:about="">
        <dc:format>image/svg+xml</dc:format>
        <dc:type
           rdf:resource="http://purl.org/dc/dcmitype/StillImage" />
        <dc:title></dc:title>
      </cc:Work>
    </rdf:RDF>
  </metadata>
  <g
     inkscape:label="Ebene 1"
     inkscape:groupmode="layer"
     id="layer1">
    <path
       style="fill:#ffffff;fill-rule:evenodd;stroke:#000000;stroke-width:10.45039383;stroke-linecap:butt;stroke-linejoin:miter;stroke-opacity:1;stroke-miterlimit:4;stroke-dasharray:none"
       d="M -1041.584 25.376953 C -1072.3637 25.376953 -1097.1426 50.155831 -1097.1426 80.935547 L -1097.1426 156.80469 L -1173.0117 156.80469 C -1203.7914 156.80469 -1228.5723 181.58552 -1228.5723 212.36523 L -1228.5723 218.38867 C -1228.5723 249.16839 -1203.7914 273.94922 -1173.0117 273.94922 L -1097.1426 273.94922 L -1097.1426 349.81836 C -1097.1426 380.59808 -1072.3637 405.37695 -1041.584 405.37695 L -1035.5586 405.37695 C -1004.7789 405.37695 -980 380.59808 -980 349.81836 L -980 273.94922 L -904.13086 273.94922 C -873.35114 273.94922 -848.57227 249.16839 -848.57227 218.38867 L -848.57227 212.36523 C -848.57227 181.58552 -873.35114 156.80469 -904.13086 156.80469 L -980 156.80469 L -980 80.935547 C -980 50.155831 -1004.7789 25.376953 -1035.5586 25.376953 L -1041.584 25.376953 z "
       transform="scale(0.26458333)"
       id="rect815"
       inkscape:export-xdpi="4.9173985"
       inkscape:export-ydpi="4.9173985" />
  </g>
</svg>
